<svg width="200" height="150" xmlns="http://www.w3.org/2000/svg">
 <g>
  <title>Layer 1</title>
  <path d="m99.18006,102.161c0.897,0 5.04,-1.48 6.66,-2.336c8.671,-4.574 16.248,-10.781 21.184,-19.356c3.962,-6.895 4.21,-15.394 4.86,-23.123c0.835,-9.985 0.761,-19.984 0.601,-30.006c-0.01,-0.722 -14.345,-2.299 -15.819,-2.435c-5.809,-0.543 -13.595,-0.905 -17.486,-0.905c-3.887,0 -11.671,0.362 -17.485,0.904c-1.475,0.137 -15.806,1.714 -15.818,2.436c-0.157,10.022 -0.236,20.021 0.6,30.006c0.654,7.729 0.898,16.228 4.861,23.123c4.937,8.575 12.514,14.782 21.185,19.356c1.619,0.855 5.764,2.336 6.657,2.336" fill="#6E1E6F" id="svg_6"/>
  <path d="m118.75506,65.38c0.033,0.006 0.065,0.011 0.097,0.015c-0.034,-0.004 -0.059,-0.015 -0.097,-0.019l0,0.004zm-1.881,1.206c0.064,0.021 0.119,0.049 0.172,0.072c-0.053,-0.027 -0.105,-0.057 -0.169,-0.081l-0.003,0.009zm11.205,-18.28s0.033,-0.5 0.054,-0.527c0.37,-0.121 1.99,-0.771 2.295,-2.823c0.045,-0.32 0.053,-0.668 0.028,-1.058l-0.089,0.083c-0.323,0.304 -1.301,1.226 -1.836,1.106c-0.139,-0.028 -0.239,-0.125 -0.303,-0.288c0.002,-2.047 -0.161,-3.677 -0.37,-5.785c0.58,-0.32 1.805,-1.229 1.801,-3.165c-0.002,-0.26 -0.033,-0.534 -0.081,-0.828l-0.101,0.113c-0.317,0.368 -1.162,1.338 -1.662,1.278c-0.12,-0.015 -0.212,-0.085 -0.274,-0.221l-0.031,-0.274c-0.401,-4.348 -1.3,-6.496 -3.078,-7.412c0,0 -0.112,-0.041 -0.112,-0.053c0,0.032 0.094,0.168 0.179,0.299c0.264,0.387 0.697,1.03 0.861,1.789c0.286,1.295 0.393,2.336 0.393,3.19c0,0.986 -0.138,1.72 -0.289,2.308c-0.236,0.431 -0.571,0.699 -0.997,0.8c-0.98,0.235 -2.102,-0.853 -2.47,-1.736c-0.014,-0.027 -0.033,-0.057 -0.058,-0.057c-0.079,0 -0.211,0.236 -0.286,0.399c-0.315,1.164 0.074,2.622 0.863,3.185c0.288,0.208 0.753,0.376 1.308,-0.004c0.292,-0.191 0.502,-0.263 0.654,-0.219c0.081,0.023 0.135,0.078 0.174,0.187a39.5076,39.5076 0 0 1 -1.266,3.116c-0.266,0.238 -0.566,0.367 -0.891,0.386c-1.104,0.067 -2.032,-1.292 -2.246,-2.257c-0.009,-0.043 -0.021,-0.067 -0.046,-0.069c-0.078,-0.018 -0.269,0.207 -0.377,0.367c-0.556,1.149 -0.429,2.734 0.274,3.464c0.264,0.272 0.716,0.534 1.377,0.242c0.342,-0.153 0.573,-0.192 0.705,-0.118c0.064,0.032 0.105,0.091 0.116,0.192a38.8675,38.8675 0 0 1 -1.783,3.013c-0.244,0.156 -0.507,0.232 -0.809,0.232c-1.172,-0.007 -1.944,-1.356 -2.032,-2.289c-0.003,-0.035 -0.014,-0.059 -0.034,-0.061c-0.079,-0.029 -0.314,0.187 -0.454,0.345c-0.724,1.091 -0.836,2.598 -0.233,3.363c0.333,0.426 0.851,0.543 1.446,0.325c0.366,-0.135 0.598,-0.164 0.695,-0.093c0.045,0.023 0.066,0.068 0.058,0.143c-0.627,0.849 -1.296,1.688 -2,2.498c-0.464,0.309 -0.931,0.424 -1.417,0.346c-1.243,-0.191 -2.012,-1.965 -2.012,-3.152c0,-0.056 -0.014,-0.089 -0.033,-0.1c-0.102,-0.042 -0.38,0.18 -0.534,0.327c-0.936,1.183 -1.193,3.042 -0.565,4.065c0.236,0.379 0.692,0.8 1.532,0.626c0.442,-0.092 0.7,-0.079 0.783,0.037c0.046,0.069 0.032,0.168 -0.043,0.303c0,0 -2.031,1.878 -2.036,1.883c-0.507,0.319 -1.278,0.641 -2.094,0.342c-1.361,-0.485 -1.85,-2.67 -1.593,-4.019c0.01,-0.065 0.002,-0.105 -0.027,-0.127c-0.106,-0.069 -0.479,0.125 -0.682,0.26c-1.318,1.142 -2.011,3.21 -1.513,4.507c0.186,0.484 0.613,1.064 1.609,1.05c0.547,-0.006 0.844,0.07 0.902,0.236c0.05,0.14 -0.072,0.323 -0.375,0.567c-0.273,0.155 -0.594,0.362 -0.848,0.677c-0.603,0.735 -0.879,1.332 -0.946,2.062l-0.06,0.745c-0.04,0.582 -0.08,1.181 -0.205,1.756c-0.107,0.548 -0.282,1.036 -0.508,1.449c-1.268,2.307 -4.228,3.512 -7.336,3.961l0,-4.329c3.781,-0.112 5.413,-1.761 5.413,-5.458c0,-3.149 -1.135,-4.518 -3.8,-4.576c-0.531,-0.009 -1.088,0.079 -1.613,0.258l0,-2.407c1.894,-0.859 4.042,-1.831 6.278,-2.402c5.143,-1.307 9.28,-4.149 10.725,-7.184c0.2,-0.437 0.347,-0.882 0.432,-1.336c-0.275,0.179 -3.714,2.355 -6.277,2.907l-0.354,0.056c-0.344,0.067 -0.708,0.138 -0.889,-0.018c-0.088,-0.073 -0.131,-0.183 -0.131,-0.342c0,-1.386 0.763,-2.474 2.156,-3.064l0.139,-0.058c3.115,-1.323 5.537,-2.355 6.712,-3.97c0.303,-0.43 0.524,-0.899 0.639,-1.423c-0.262,0.14 -3.871,2.046 -6.197,2.371l-0.123,0.021c-0.281,0.048 -0.75,0.129 -0.969,-0.108c-0.13,-0.138 -0.154,-0.365 -0.079,-0.678c0.268,-1.055 0.717,-1.683 1.553,-2.162c0.912,-0.523 1.894,-0.96 2.846,-1.382c1.608,-0.717 3.045,-1.36 3.766,-2.213c0.036,-0.049 0.081,-0.094 0.112,-0.145a0.1514,0.1514 0 0 0 0.026,-0.038c0.131,-0.195 0.224,-0.406 0.276,-0.628l-3.383,1.065l-0.666,0.205c-0.966,0.306 -1.972,0.622 -2.293,0.304c-0.117,-0.118 -0.136,-0.311 -0.049,-0.58c0.167,-0.584 0.316,-0.914 0.591,-1.301c1.266,-1.802 3.838,-3.716 6.915,-3.172c0.513,0.096 0.772,0.059 0.788,0c0.012,-0.031 -0.078,-0.133 -0.48,-0.279c-2.323,-0.845 -4.489,-0.765 -6.438,0.231c-3.565,1.824 -6.501,6.739 -8.728,14.613c-1.274,4.501 -4.046,6.122 -6.899,7.405l0,-10.04c1.038,-0.416 1.937,-0.996 2.709,-1.767c2.168,-2.168 2.939,-4.875 2.058,-7.241c-0.714,-1.912 -2.407,-3.237 -4.309,-3.373c-0.162,-0.01 -0.311,-0.017 -0.458,-0.02l0,-1.447c-3.567,0 -10.957,0.331 -16.716,0.868c-2.067,0.196 -15.111,1.689 -15.123,2.315c-0.057,3.405 -0.098,6.779 -0.098,10.142c0,6.266 0.156,12.482 0.673,18.711l0.193,2.433c0.528,6.823 1.077,13.882 4.464,19.785c4.283,7.488 11.107,13.746 20.277,18.611c0.569,0.3 3.203,1.654 5.396,2.125c0.007,0 0.02,0.004 0.033,0.004c0.096,0.025 0.192,0.041 0.288,0.057c0.208,0.032 0.418,0.065 0.614,0.079l0,-10.756c3.055,0.047 7.798,0.084 9.061,-0.356c1.216,-0.423 2,-1.352 2.203,-2.622c0.234,-1.473 -0.361,-3.116 -1.411,-3.915c-0.148,-0.111 -0.352,-0.129 -0.405,-0.053c-0.044,0.047 -0.016,0.1 0.054,0.23c0.114,0.202 0.303,0.544 0.303,1.235c0,0.638 -0.223,1.17 -0.66,1.575c-1.183,1.107 -3.599,0.958 -3.621,0.958l-2.791,-0.031l-2.707,0c0.035,-0.01 0.064,-0.021 0.097,-0.025l-0.101,0c1.572,-0.367 2.68,-1.502 3.156,-2.373c1.2,-2.182 0.192,-3.628 -0.124,-4.048c-0.06,-0.056 -0.097,-0.095 -0.097,-0.095l0.02,0c-0.011,-0.018 -0.02,-0.023 -0.02,-0.023c0.187,-0.004 0.37,-0.01 0.548,-0.021c-0.173,0.008 -0.345,0.025 -0.525,0.021c0,0 0.01,0.012 0.022,0.023c0.709,-0.004 1.357,-0.076 1.945,-0.211c-0.436,0.092 -0.904,0.139 -1.4,0.166c5.793,-0.332 7.016,-5.557 7.681,-8.409l0.116,-0.467c0.205,-0.848 0.74,-2.335 2.019,-2.733c0.813,-0.256 1.348,-0.563 1.74,-0.792l0.469,-0.249s0.16,-0.064 0.174,-0.068c0.728,0.025 0.712,0.64 0.7,1.046c-0.004,0.172 -0.011,0.328 0.049,0.361c0.028,0.019 0.085,0 0.168,-0.05c0.625,-0.386 0.937,-1.548 1.023,-2.219c0.002,-0.048 0.006,-0.103 0.006,-0.142l0.004,0.002l0.007,-0.032c0.794,0.284 0.866,0.75 0.906,1c0.012,0.07 0.021,0.128 0.041,0.137c0.022,0.011 0.092,-0.028 0.203,-0.117c0.579,-0.465 0.707,-1.536 0.724,-2.162l0,-0.027c0.002,-0.007 0.002,-0.018 0.002,-0.018c0.974,0.06 1.072,0.612 1.115,0.877c0.009,0.056 0.023,0.129 0.041,0.136c0,0 0.037,-0.002 0.157,-0.127c0.507,-0.535 0.507,-1.672 0.488,-2.165a0.6395,0.6395 0 0 0 -0.009,-0.067l0.004,0l0,-0.02c0.632,0.046 0.773,0.522 0.86,0.805c0.026,0.096 0.059,0.196 0.094,0.2c0.013,0.002 0.055,-0.009 0.146,-0.127c0.578,-0.737 0.545,-1.846 0.455,-2.265c-0.009,-0.033 -0.021,-0.072 -0.031,-0.092l0.006,0.002c0,-0.009 -0.002,-0.024 -0.002,-0.024c0.646,0.031 0.792,0.45 0.875,0.694c0.027,0.087 0.055,0.164 0.084,0.168c0.021,0.002 0.067,-0.018 0.168,-0.151c0.46,-0.588 0.423,-1.721 0.299,-2.325c0.852,-1.004 1.382,-1.862 1.532,-2.487c0.117,-0.469 0.188,-0.532 0.244,-0.527c0.096,0.009 0.124,0.275 0.134,0.435c-0.134,1.525 -0.453,3.478 -0.91,5.489a0.189,0.189 0 0 0 -0.01,0.035c-0.002,0.013 -0.007,0.031 -0.011,0.046c-0.061,0.28 -0.121,0.562 -0.19,0.848c0,0 -0.008,-0.006 -0.01,-0.01a0.1077,0.1077 0 0 0 -0.009,0.034c-0.285,-0.269 -1.015,-0.357 -1.174,-0.192c-0.077,0.076 0.01,0.2 0.092,0.288c0.312,0.324 0.481,0.937 0.504,1.491c0.01,0.083 0.017,0.165 0.021,0.238l-0.02,-0.006c-0.002,0.012 0,0.021 0,0.021c-0.346,-0.174 -0.916,-0.212 -1.031,-0.057c-0.059,0.074 0.022,0.194 0.104,0.275c0.372,0.381 0.491,1.177 0.432,1.768c-0.008,0.102 -0.015,0.196 -0.034,0.28c-0.002,-0.004 -0.006,-0.012 -0.013,-0.013c-0.003,0.011 -0.003,0.021 -0.005,0.035c-0.277,-0.271 -1.012,-0.365 -1.175,-0.196c-0.081,0.078 0.007,0.203 0.094,0.292c0.32,0.333 0.398,1.232 0.335,1.828c-0.006,0.106 -0.016,0.2 -0.024,0.282c-0.007,-0.004 -0.012,-0.006 -0.018,-0.013c-0.003,0.013 -0.003,0.027 -0.005,0.036c-0.326,-0.294 -0.885,-0.459 -1.014,-0.349c-0.053,0.049 -0.023,0.162 0.081,0.311c0.412,0.605 0.279,1.73 0.155,2.154c-1.86,4.13 -3.931,6.245 -6.154,6.288c-1.813,0.041 -2.779,-1.579 -2.896,-2.741c-0.16,-1.681 1.441,-2.796 2.413,-3.192c0.702,-0.292 1.141,0.108 1.296,0.292c0.569,0.682 0.495,1.149 0.335,1.428c-0.213,0.36 -0.698,0.542 -1.019,0.487c-0.531,-0.102 -0.962,0.104 -1.141,0.534c-0.172,0.419 -0.062,0.885 0.269,1.121c0.537,0.374 1.228,0.397 1.961,0.072c0.914,-0.411 1.697,-1.301 1.781,-2.039c0.155,-0.645 -0.092,-1.932 -0.595,-2.462c-1.138,-1.545 -2.568,-2.003 -3.827,-1.222c-2.244,1.393 -3.503,2.969 -3.637,4.577c-0.119,1.464 0.673,2.962 2.362,4.445c2.01,1.763 5.258,0.679 6.708,-0.878c0,0 0.172,-0.126 0.201,-0.128c0.377,0.142 2.157,0.682 3.751,-0.874c0.193,-0.198 0.388,-0.423 0.575,-0.695l-0.148,0.012c-0.473,0.052 -1.736,0.181 -2.042,-0.229c-0.078,-0.109 -0.089,-0.25 -0.014,-0.431c0.92,-1.258 1.763,-2.856 2.522,-4.775c0.39,-0.025 2.128,-0.248 2.934,-2.17c0.122,-0.293 0.222,-0.628 0.292,-1.004l-0.137,0.071c-0.444,0.256 -1.634,0.926 -2.011,0.629c-0.128,-0.095 -0.154,-0.288 -0.08,-0.572c0.446,-1.544 0.852,-3.259 1.224,-5.123c0.545,-0.085 2.188,-0.526 2.698,-2.66c0.056,-0.259 0.101,-0.539 0.121,-0.853l-0.123,0.084c-0.412,0.279 -1.507,1.018 -1.995,0.813c-0.124,-0.054 -0.2,-0.162 -0.228,-0.332c0.249,-1.647 0.462,-3.437 0.658,-5.336c0.255,-0.076 2.402,-0.779 2.402,-3.529c0,-0.092 -0.008,-0.191 -0.012,-0.29c-0.031,0.029 -0.069,0.064 -0.069,0.064c-0.367,0.333 -1.334,1.221 -1.84,1.092c-0.126,-0.03 -0.212,-0.12 -0.269,-0.281l0.222,-4.411l0.036,-0.689zm-28.927,-19.867c1.701,0.602 2.629,1.997 2.484,3.78c-0.137,1.714 -1.252,3.252 -2.484,3.44l0,-7.22zm0,28.114c0.199,-0.022 0.419,-0.036 0.663,-0.034c1.678,0 2.421,0.786 2.421,2.557c0,1.269 -0.384,2.564 -3.084,2.684l0,-5.207zm7.98,13.725l0,0.007c-1.086,1.809 -2.456,2.931 -5.923,2.931c0,0 -0.887,-0.002 -2.057,-0.004l0,-1.898l1.849,0c2.832,0 4.768,-0.381 5.593,-1.103c0.382,-0.331 0.493,-0.316 0.543,-0.281c0.104,0.069 0.014,0.306 -0.005,0.348m18.919,-27.59l-0.061,0.829c-0.773,11.894 -4.461,16.184 -7.973,18.818l-0.129,0.098c-1.105,0.826 -2.359,1.764 -4.658,2.529l-0.072,0.024c-0.435,0.139 -1.753,0.561 -2.104,1.165c-0.335,0.576 -0.439,0.625 -0.497,0.588c-0.144,-0.075 0.131,-0.866 0.231,-1.051c0.257,-0.486 0.689,-0.754 1.521,-1.142c1.575,-0.737 1.78,-1.678 1.762,-2.172c-0.027,-0.703 -0.509,-1.373 -1.176,-1.623c-0.511,-0.197 -1.009,-0.091 -1.318,0.271c0.136,0.059 0.497,0.219 0.562,0.805c0.077,0.889 -0.391,1.263 -0.814,1.314c-0.502,0.058 -1.082,-0.284 -1.179,-0.962c-0.177,-1.26 0.486,-2.07 0.908,-2.348c0.517,-0.344 0.838,-0.458 1.219,-0.585c0,0 0.655,-0.246 0.661,-0.246c1.049,-0.182 1.776,0.391 2.167,0.696c0.143,0.115 0.266,0.214 0.319,0.196l0.055,-0.059c0.149,-0.308 -0.063,-1.534 -0.323,-2.188l0.021,-0.063l0.038,-0.004c0.959,-0.133 1.452,0.517 1.749,0.901c0.096,0.131 0.192,0.255 0.238,0.237c0.023,-0.009 0.039,-0.032 0.058,-0.076c0.124,-0.37 -0.212,-1.71 -0.511,-2.346c-0.011,-0.019 -0.021,-0.036 -0.03,-0.052l0.002,-0.002c-0.002,-0.009 -0.004,-0.02 -0.009,-0.026c0.975,-0.291 1.577,0.255 1.9,0.545c0.123,0.109 0.226,0.201 0.269,0.179l0.046,-0.07c0.096,-0.357 -0.342,-1.614 -0.711,-2.229c0,0 0.186,-0.202 0.192,-0.209c0.941,-0.367 1.546,0.007 1.908,0.235c0.138,0.083 0.246,0.148 0.297,0.121l0.047,-0.081c0.083,-0.354 -0.379,-1.496 -0.749,-2.038c0,0 0.179,-0.229 0.194,-0.239c0.754,-0.251 1.333,-0.062 1.685,0.047c0.146,0.051 0.261,0.089 0.306,0.062c0.021,-0.014 0.04,-0.041 0.046,-0.091c0.045,-0.333 -0.398,-1.356 -0.737,-1.735c0,0 0.157,-0.224 0.175,-0.23c0.697,-0.244 1.235,-0.07 1.557,0.042l0.276,0.056c0.03,-0.018 0.044,-0.063 0.044,-0.135c0.005,-0.41 -0.428,-1.415 -0.689,-1.663c0,0 -0.007,-0.002 -0.012,-0.008l0.003,0s-0.015,-0.016 -0.022,-0.019c0.676,-0.567 1.317,-0.529 1.66,-0.512l0.256,-0.016c0.017,-0.013 0.023,-0.035 0.019,-0.074c-0.014,-0.267 -0.505,-0.99 -0.847,-1.263c0.813,-1.514 1.387,-2.923 1.709,-4.205c0.41,-1.61 0.476,-1.6 0.533,-1.59c0.09,0.016 0.079,0.343 -0.012,1.594m-9.308,13.549c0.046,-0.013 0.094,-0.022 0.138,-0.031c-0.046,0.006 -0.094,0.009 -0.141,0.022l0.003,0.009zm6.033,-7.476c0.092,-0.076 0.185,-0.141 0.278,-0.194c-0.095,0.052 -0.19,0.113 -0.287,0.185l0.009,0.009m0.248,19.989a0.584,0.584 0 0 1 0.097,0.088l0,-0.019c-0.029,-0.021 -0.059,-0.045 -0.097,-0.069m-4.428,-32.945s-0.096,0.048 -0.246,0.127c0.12,-0.054 0.198,-0.092 0.239,-0.108c0.002,-0.005 0.004,-0.013 0.007,-0.019m1.207,-4.946l0,-0.009s-0.034,0.011 -0.095,0.029c0.041,-0.007 0.074,-0.015 0.095,-0.02m-3.2,10.858s-0.1,0.062 -0.258,0.159c0.124,-0.069 0.208,-0.12 0.25,-0.139c0.003,-0.004 0.003,-0.016 0.008,-0.02m-16.558,44.867c-0.271,0.109 -0.557,0.211 -0.868,0.273l0.105,0c0.267,-0.071 0.524,-0.167 0.763,-0.273m22.275,-24.024c-0.074,-0.023 -0.151,-0.048 -0.246,-0.061c0.003,0.005 0.005,0.014 0.005,0.016c0.092,0.012 0.169,0.025 0.241,0.045m-0.098,8.409c0.039,0.035 0.07,0.067 0.103,0.098l0,-0.016c-0.033,-0.028 -0.068,-0.054 -0.103,-0.082m1.329,-4.469c0.04,0.022 0.074,0.045 0.106,0.064l0,-0.015c-0.032,-0.014 -0.066,-0.033 -0.106,-0.049m0.597,-1.872c0.036,0.027 0.067,0.051 0.088,0.082c0.007,-0.004 0.007,-0.006 0.01,-0.014a1.056,1.056 0 0 0 -0.098,-0.068m-3.596,-0.617l0,0.007c0.041,0.005 0.081,0.013 0.115,0.02c-0.037,-0.011 -0.072,-0.022 -0.115,-0.027" fill="#E5A823" id="svg_7"/>
  <path d="m98.11106,35.377c-0.313,-0.316 -0.287,-1.753 -0.283,-1.771c0,-1.845 -1.546,-2.5 -2.865,-2.5c-1.415,0 -2.875,0.745 -2.875,1.987l0.01,4.702c0,0.252 -0.084,0.452 -0.242,0.588c-0.139,0.118 -0.333,0.182 -0.547,0.182c-0.435,0 -0.88,-0.267 -0.88,-0.718l0,-2.532c0,-2.879 -3.222,-3.309 -5.141,-3.309c-2.748,0 -5.67,1.229 -5.67,3.504l0.003,1.264l-0.003,10.36c0.02,0.622 -0.38,1.073 -0.728,1.269c-0.301,0.169 -0.611,0.187 -0.832,0.049c-0.194,-0.124 -0.406,-0.42 -0.346,-1.135c0.008,-0.095 -0.036,-0.167 -0.106,-0.183c-0.099,-0.025 -0.253,0.052 -0.365,0.336c-0.332,0.861 -0.31,1.653 0.058,2.358c0.474,0.905 1.417,1.419 1.931,1.544l-0.021,1.609l-0.015,0c-1.826,-0.031 -4.032,-0.738 -4.032,-4.063l0,-16.018c0,-2.445 -1.017,-3.272 -1.866,-3.536c-1.566,-0.483 -3.614,0.572 -4.477,1.827c-0.903,1.318 -0.637,2.507 -0.089,3.186c0.624,0.765 1.662,1.021 2.591,0.634c0.017,-0.011 0.182,-0.122 0.173,-0.233c-0.011,-0.07 -0.08,-0.115 -0.213,-0.135c-0.625,-0.096 -1.001,-0.519 -1.001,-1.13c0,-0.67 0.585,-1.234 1.284,-1.234c0.688,0 1.25,0.555 1.25,1.234l0,2.347l0.011,13.775c-1.861,-0.035 -2.369,1.487 -2.369,2.382c0,1.409 0.987,1.94 1.027,1.96c0.043,0.028 0.139,0.021 0.202,-0.038c0.045,-0.042 0.083,-0.137 0,-0.306c-0.232,-0.467 -0.247,-0.873 -0.027,-1.174c0.279,-0.394 0.885,-0.536 1.332,-0.475c0.288,0.042 0.481,0.155 0.538,0.315c0.687,1.939 2.463,2.924 5.438,3.012c0.064,0 0.175,0.065 0.284,0.171l-0.009,0.88c-0.916,0.393 -2.943,1.725 -2.854,5.549c0.064,2.924 0.64,7 1.193,7.407c0.047,0.037 0.095,0.049 0.146,0.037c2.474,-0.688 6.15,-0.733 8.011,0.373c0.257,0.151 0.398,0.336 0.378,0.506c-0.006,0.098 -0.067,0.175 -0.152,0.204c-0.094,0.036 -0.192,0.007 -0.271,-0.072c-0.811,-0.812 -3.107,-0.908 -3.789,-0.922c-2.576,-0.043 -7.851,0.75 -9.41,4.045c-0.887,1.889 0.914,5.697 1.882,6.906c0.058,0.079 0.188,0.077 0.283,0.038c0.076,-0.032 0.117,-0.089 0.102,-0.149c-0.374,-1.89 0.373,-3.751 2.108,-5.241c2.108,-1.812 5.189,-2.641 7.164,-1.929c0.262,0.101 0.44,0.264 0.464,0.442c0.012,0.085 -0.01,0.161 -0.063,0.206c-0.051,0.035 -0.113,0.039 -0.188,0.008c-2.571,-1.111 -5.2,0.576 -5.227,0.592c1.115,6.676 9.242,6.513 15.175,6.39l2.033,-0.029c0.004,0.016 2.271,2.254 1.961,4.141c-0.125,0.757 -0.646,1.365 -1.554,1.8c-0.906,0.442 -4.526,0.215 -4.901,-0.088c-0.202,-0.162 -0.283,-0.64 -0.208,-1.211c0.123,-0.895 0.661,-2.115 1.78,-2.604c0.122,-0.031 0.18,-0.082 0.171,-0.148c-0.03,-0.136 -0.41,-0.237 -0.665,-0.212c-2.066,0.261 -3.557,1.302 -4.083,2.866c-0.117,0.349 -0.168,0.513 -0.174,0.883c-0.057,0.655 -0.208,0.669 -1.073,0.763l-0.464,0.052c-1.636,0.201 -2.565,0.981 -2.765,2.318c-0.15,1.055 0.175,2.119 0.899,2.927c0.605,0.669 1.379,1.033 2.135,1.004c0.043,0 0.118,-0.039 0.131,-0.111c0.02,-0.061 -0.002,-0.162 -0.192,-0.271c-0.92,-0.53 -1.16,-1.391 -0.988,-2.009c0.182,-0.68 0.835,-1.09 1.696,-1.08c0.014,0 0.368,-0.008 0.38,0.258l0.003,0.255l0.059,0.751c0.349,2.016 1.887,3.776 3.739,4.287c0.072,0.018 0.212,-0.035 0.247,-0.133c0.03,-0.083 -0.002,-0.202 -0.314,-0.335c-0.981,-0.728 -1.338,-2.168 -1.343,-3.275c-0.006,-0.735 0.146,-1.347 0.374,-1.524c0.411,-0.316 1.93,-0.519 2.683,0.237c0.749,0.745 1.084,1.432 0.947,1.925c-0.089,0.323 -0.386,0.563 -0.863,0.688c-0.062,0.014 -0.091,0.116 -0.075,0.192c0.006,0.037 0.046,0.164 0.229,0.133c1.984,-0.294 2.678,-1.849 2.666,-3.094c-0.005,-0.012 -0.025,-0.08 0.018,-0.129c0.038,-0.051 0.125,-0.08 0.249,-0.08l1.462,0.018c0.245,0 0.518,0.006 0.79,0.012l0,-16.775l-5.572,-0.011c-1.295,0 -1.79,0.565 -1.821,1.096c-0.046,0.691 0.689,1.527 2.128,1.707c0.088,0.012 0.317,0.147 0.312,0.231c0,0.027 -0.031,0.094 -0.333,0.104c-0.958,0.012 -2.947,0.039 -3.67,-1.133c-0.441,-0.716 -0.473,-1.643 -0.072,-2.354c0.507,-0.917 1.667,-1.42 3.254,-1.42l5.774,0l0,-2.239c-2.894,0.428 -5.93,0.194 -7.837,-0.427c-3.594,-1.175 -6.593,-4.459 -5.367,-8.469c0.171,-0.557 0.559,-1.133 1.188,-1.766c0.786,-0.779 1.57,-0.803 1.832,-0.811c0.109,0.018 0.176,-0.002 0.208,-0.053c0.065,-0.128 -0.159,-0.369 -0.166,-0.382c-1.249,-1.481 -6.448,-1.923 -7.48,-1.487c-0.027,0.015 -0.058,-0.033 -0.077,-0.065c-0.421,-0.76 -0.574,-5.669 1.286,-6.965c0.772,-0.534 1.587,-0.734 2.175,-0.527c0.476,0.17 0.816,0.585 1.01,1.244c0.222,0.766 0,1.665 -0.514,1.998c-0.373,0.248 -0.852,0.164 -1.345,-0.243c-0.136,-0.113 -0.194,-0.278 -0.248,-0.422l-0.065,-0.162c-0.053,-0.109 -0.139,-0.228 -0.23,-0.22c-0.026,0 -0.066,0.015 -0.083,0.085c-0.073,1.562 0.545,2.698 1.703,3.117c1.993,0.73 4.171,-0.037 5.539,-1.946c1.271,-1.78 1.802,-4.78 0.561,-5.833c-0.087,-0.072 -0.155,-0.091 -0.202,-0.062c-0.11,0.062 -0.062,0.338 -0.049,0.394c0.008,1.667 -1.073,2.869 -2.128,3.062c-0.904,0.165 -1.664,-0.386 -2.086,-1.52c0,0 0.03,-0.247 0.309,-0.223c0.916,0.083 1.575,-0.251 1.911,-0.961c0.418,-0.89 0.07,-2.135 -0.807,-2.89c-0.033,-0.013 -0.216,-0.062 -0.292,0c-0.021,0.017 -0.038,0.044 -0.031,0.089c0.128,1.091 -0.159,1.786 -0.792,1.911c-0.578,0.115 -1.272,-0.308 -1.43,-0.863c-0.165,-0.599 0.318,-1.151 1.329,-1.516c0.055,-0.02 0.073,-0.054 0.08,-0.076c0.018,-0.085 -0.069,-0.184 -0.08,-0.196c-1.329,-0.444 -2.738,0.033 -3.232,1.077c-0.324,0.693 -0.022,1.925 0.734,2.281c0,0 0.03,0.045 -0.022,0.117c-0.146,0.212 -0.847,0.483 -1.496,0.28c-0.474,-0.151 -1.036,-0.595 -1.036,-1.869l0,-7.68c0,-0.787 0.87,-1.209 1.726,-1.277c0.846,-0.075 1.818,0.195 1.94,0.95c0.162,0.959 0.034,1.21 -0.272,1.36c-0.592,0.277 -1.105,-0.178 -1.105,-0.178c-0.01,0.006 -0.013,0.015 -0.015,0.024l-0.009,-0.005c-0.005,0.013 -0.005,0.026 -0.01,0.035c-0.093,0.189 -0.08,0.376 0.019,0.559c0.213,0.405 0.776,0.736 1.438,0.851c0.651,0.113 1.146,0.037 1.46,-0.229c0.244,-0.205 0.373,-0.528 0.373,-0.927l0,-1.251c0,-0.577 0.318,-0.854 0.614,-0.869c0.265,-0.014 0.551,0.182 0.596,0.643l0.019,1.654l-0.019,2.728c0,1.961 1.531,2.86 2.956,2.86c1.428,0 2.874,-0.917 2.874,-2.665l0,-4.045c0,-0.748 0.305,-1.223 0.814,-1.273c0.512,-0.051 1.153,0.381 1.307,1.16c0.17,0.892 0.098,1.032 -0.138,1.491l-0.135,0.264l-0.099,0.203c-0.233,0.469 -0.334,0.681 -0.259,0.789c0.058,0.081 0.211,0.081 0.508,0.045c0.979,-0.117 1.853,-0.34 2.649,-0.657l0,-3.799c-0.015,0.002 -0.029,0.007 -0.049,0.011c-0.354,0.046 -0.722,0.071 -1.025,-0.231m-15.057,24.829c0,1.183 -1.013,2.145 -2.253,2.145c-1.242,0 -2.253,-0.962 -2.253,-2.145c0,-1.176 1.011,-2.134 2.253,-2.134c1.24,0 2.253,0.958 2.253,2.134m1.185,-22.158l0.005,0.006c0,0.001 -0.005,-0.001 -0.005,-0.006m-4.878,22.158c0,0.756 0.646,1.374 1.44,1.374c0.795,0 1.445,-0.618 1.445,-1.374c0,-0.751 -0.649,-1.363 -1.445,-1.363c-0.793,0 -1.44,0.612 -1.44,1.363m15.236,-31.527c-0.223,0.293 -0.408,0.627 -0.315,0.713c0.051,0.045 0.146,0.004 0.292,-0.121c1.256,-1.078 2.738,-1.36 4.399,-0.838c0.078,0.026 0.138,0.057 0.208,0.084l0,-1.64c-2.911,-0.068 -4.236,1.345 -4.584,1.802m-2.528,25.145c-0.62,0.824 -0.936,2.752 -0.936,5.737c0,4.729 3.653,5.38 7.595,5.38c0.155,0 0.304,-0.006 0.452,-0.011l0,-3.228c-0.146,0.004 -0.293,0.011 -0.452,0.011c-3.336,0 -4.598,-0.25 -4.598,-2.931c0,-3.172 1.449,-4.453 3.623,-5.403l1.399,-0.625s0.02,-0.008 0.029,-0.015l0,-3.433c-0.356,0.161 -0.72,0.317 -1.082,0.473c-2.178,0.945 -4.433,1.92 -6.03,4.045m-15.721,14.054l0.038,0l0.054,-0.034l-0.531,-3.582c0.002,-0.189 0.002,-0.327 -0.09,-0.396c-0.097,-0.072 -0.285,-0.056 -0.65,0.058c-5.062,1.659 -5.079,3.57 -4.666,7.086c0.029,0.233 0.348,0.651 0.467,0.651l0.024,0.003l0.028,-0.049c0.065,-0.309 0.253,-0.739 0.338,-0.891c1.478,-2.609 3.983,-2.859 4.988,-2.846m0.031,-0.029l0,0.002c-0.055,-0.002 -0.121,-0.002 -0.181,-0.002l0.181,0m20.006,-9.387c-0.049,0.21 0.039,0.441 0.194,0.503c0.059,0.022 0.22,0.044 0.378,-0.241l0.149,-0.352c0.343,-0.852 0.643,-1.6 2.074,-1.757l0,-1.595c-1.376,0.454 -2.584,1.565 -2.795,3.442" fill="#6E1E6F" id="svg_8"/>
  <path d="m160.53806,108.788c-0.24,-3 -2.784,-5.1 -14.798,-2.313c-0.054,-1.369 -0.105,-2.586 -0.133,-3.183c-0.103,-2.308 -2.558,-3.573 -7.539,-3.413c-2.456,0.08 -3.764,0.177 -4.686,0.308c-3.342,-2.587 -4.338,-6.695 -4.151,-10.388l4.835,-5.575c1.287,-1.001 -3.032,-5.401 -7.223,-4.161l-8.216,10.822c0.13,-0.109 0.256,-0.196 0.39,-0.29c-1.992,2.526 -1.846,7.344 1.014,12.121c-6.764,1.116 -14.466,2.198 -19.941,2.198c-0.314,0 -0.639,-0.004 -0.965,-0.014c-0.327,0.01 -0.651,0.014 -0.963,0.014c-5.475,0 -13.174,-1.082 -19.94,-2.198c2.86,-4.777 3.007,-9.595 1.017,-12.121c0.129,0.094 0.258,0.181 0.387,0.29l-8.219,-10.822c-4.191,-1.24 -8.506,3.16 -7.219,4.161l4.835,5.575c0.188,3.692 -0.813,7.801 -4.154,10.388c-0.919,-0.131 -2.227,-0.228 -4.679,-0.308c-4.983,-0.16 -7.444,1.105 -7.545,3.413c-0.027,0.597 -0.081,1.813 -0.132,3.183c-12.012,-2.786 -14.558,-0.687 -14.796,2.313c-0.195,2.455 -0.284,7.253 -0.003,9.023c0.281,1.77 2.924,3.082 5.77,3.569c6.575,1.125 19.063,-0.321 28.667,-8.82c6.05,1.408 13.422,3.188 26.012,3.188c0.327,0 0.643,-0.008 0.963,-0.012c0.323,0.004 0.636,0.012 0.965,0.012c12.592,0 19.96,-1.78 26.012,-3.188c9.601,8.499 22.094,9.945 28.669,8.82c2.845,-0.487 5.492,-1.8 5.772,-3.569c0.277,-1.77 0.19,-6.567 -0.006,-9.023" fill="#F1DEAE" id="svg_9"/>
  <path d="m64.74606,104.476c-0.24,0.569 -0.892,4.218 -0.969,4.997c0.194,0 0.496,0.045 0.526,-0.016c0.71,-1.675 1.07,-3.436 1.219,-5.248c-0.296,0 -0.635,-0.078 -0.776,0.267m3.398,0.014c0.205,0.827 -0.038,4.95 0.59,6.138c0.147,0.249 0.498,-0.059 0.535,-0.279c0.277,-1.988 0.041,-3.855 -0.348,-5.833c-0.008,-0.056 -0.494,-0.026 -0.777,-0.026m1.143,-1.23c0.048,-0.01 0.084,-0.402 -0.017,-0.484c-1.383,-1.188 -3.065,-0.575 -4.625,-0.565c-0.408,0.01 -0.265,0.504 -0.286,0.817c0.198,0 0.388,0.018 0.583,0c1.505,-0.196 2.861,0.557 4.345,0.232m91.781,5.487c-0.099,-1.306 -0.603,-2.272 -1.525,-2.945c-2.087,-1.519 -6.33,-1.491 -13.307,0.076c-0.026,-0.712 -0.06,-1.488 -0.099,-2.346l-0.009,-0.262c-0.082,-1.881 -1.545,-4.082 -8.045,-3.871c-2.277,0.071 -3.582,0.163 -4.514,0.282c-1.723,-1.39 -2.684,-3.127 -3.2,-4.708c-0.528,-1.612 -0.704,-3.336 -0.645,-4.979l4.72,-5.441c0.246,-0.211 0.624,-0.737 0.112,-1.739c-0.856,-1.673 -4.305,-4.252 -7.824,-3.213c-0.097,0.033 -0.187,0.094 -0.25,0.172l-8.221,10.82c-0.089,0.121 -0.108,0.272 -0.075,0.413c-0.263,0.458 -0.487,0.963 -0.647,1.522c-0.229,0.812 -0.342,1.675 -0.342,2.572c0,2.294 0.739,4.813 2.098,7.252c-6.608,1.078 -13.927,2.082 -19.202,2.082c-0.313,0 -0.644,-0.01 -0.967,-0.016c-0.323,0.006 -0.653,0.016 -0.963,0.016c-5.279,0 -12.599,-1.004 -19.205,-2.082c1.354,-2.438 2.1,-4.958 2.1,-7.252c0,-0.897 -0.112,-1.761 -0.346,-2.572c-0.162,-0.56 -0.379,-1.064 -0.645,-1.522c0.037,-0.141 0.015,-0.292 -0.075,-0.413l-8.224,-10.82c-0.06,-0.078 -0.149,-0.139 -0.248,-0.172c-3.524,-1.039 -6.964,1.54 -7.825,3.213c-0.516,1.002 -0.126,1.528 0.118,1.739l4.712,5.441c0.062,1.644 -0.107,3.367 -0.639,4.979c-0.516,1.581 -1.482,3.318 -3.206,4.708c-0.926,-0.119 -2.234,-0.211 -4.517,-0.282c-6.491,-0.211 -7.958,1.99 -8.038,3.871l-0.012,0.262c-0.041,0.857 -0.07,1.634 -0.098,2.346c-6.973,-1.567 -11.221,-1.594 -13.304,-0.076c-0.926,0.673 -1.422,1.64 -1.529,2.945c-0.188,2.422 -0.292,7.296 0,9.141c0.349,2.211 3.545,3.517 6.172,3.969c5.61,0.962 18.567,0.264 28.904,-8.773c0.036,0.008 0.066,0.018 0.104,0.027c5.961,1.389 13.379,3.116 25.8,3.116c0.327,0 0.643,-0.01 0.963,-0.01c0.323,0 0.64,0.01 0.967,0.01c12.416,0 19.838,-1.728 25.797,-3.116c0.033,-0.01 0.07,-0.02 0.106,-0.027c10.335,9.037 23.29,9.735 28.904,8.773c2.629,-0.452 5.821,-1.758 6.168,-3.969c0.294,-1.845 0.196,-6.719 0.001,-9.141m-22.95,-8.388c3.147,-0.102 6.934,0.331 7.048,2.955l0.009,0.26c0.164,3.587 0.214,5.743 0.214,7.03c0,0.495 -0.008,0.836 -0.022,1.102c-0.858,-0.63 -1.962,-0.808 -3.298,-0.994c-4.168,-0.587 -7.523,-0.334 -10.948,0.284l-0.052,-0.341c0.121,-0.27 -0.676,-4.328 -0.557,-4.504c0.297,-0.442 1.692,0.025 1.672,-0.83c-0.016,-0.751 -1.209,-0.408 -1.779,-0.466c-0.215,-0.016 -0.206,-0.053 -0.243,-0.24c-0.064,-0.323 -0.387,-1.874 -0.652,-2.125c-0.243,-0.234 -0.612,-0.021 -0.686,0.276c-0.139,0.484 0.638,2.375 0.333,2.389c-0.774,0.037 -1.568,0.708 -1.62,0.53c-0.142,-0.376 -0.152,-0.969 -0.429,-1.345c-0.369,-0.523 -1.662,-0.162 -1.68,-0.402c-0.029,-0.573 0.364,-0.524 0.599,-0.651c0.16,-0.083 0.322,-0.192 0.352,-0.394c0.043,-0.233 0.052,-0.563 -0.085,-0.76c0.43,-0.078 0.857,-0.15 1.27,-0.223l0.838,-0.152c1.691,-0.294 2.595,-0.528 3.325,-0.719c1.336,-0.347 2.071,-0.538 6.391,-0.68m6.886,13.462c-0.529,0.583 -2.104,0.468 -3.496,0.368c-1.383,-0.103 -2.692,-0.19 -3.483,0.297c-0.008,-0.221 -0.012,-0.448 -0.008,-0.687c0.037,-1.279 0.325,-2.17 0.604,-2.433c1.055,0.037 2.152,0.138 3.312,0.298c1.688,0.234 2.62,0.405 3.261,1.172c0.056,0.451 0.002,0.776 -0.19,0.985m-18.762,-8.036c0.211,0.029 0.369,0.068 0.369,0.29c0.009,0.264 -0.389,0.305 -0.455,0.334c-0.093,0.039 -0.34,0.031 -0.378,-0.07c-0.13,-0.358 0.09,-0.611 0.464,-0.554m-0.742,-0.749c-0.101,-0.135 -0.062,-0.403 -0.009,-0.421c0.056,-0.016 0.376,-0.201 0.525,-0.1c0.092,0.076 0.186,0.229 0.139,0.34c-0.092,0.214 -0.487,0.38 -0.655,0.181m0.674,1.93c0.068,-0.23 1.082,0.092 1.162,-0.624c0.021,-0.148 0.207,0.131 0.521,0.259c0.301,0.135 1.189,-0.321 1.734,-0.241c0.035,0.016 0.801,4.135 0.646,4.751l-1.725,0.289c-0.059,-2.073 -1.009,-4.169 -1.497,-4.181c-0.453,-0.01 -0.961,0.203 -0.841,-0.253m-1.253,-4.414c-0.014,0.006 -0.022,-0.074 -0.029,-0.174c0.223,-0.039 0.451,-0.08 0.674,-0.119c-0.019,0.098 -0.032,0.195 -0.12,0.256c-0.175,0.121 -0.425,0.01 -0.525,0.037m2.213,-22.045c2.932,-0.775 5.867,1.377 6.566,2.745c0.093,0.182 0.145,0.348 0.145,0.46c0,0.061 -0.016,0.104 -0.047,0.129c-0.022,0.021 -0.048,0.041 -0.064,0.062c0,0 -6.73,7.766 -7.428,8.564c-1.32,-1.797 -2.798,-2.896 -4.326,-3.117c-0.557,-0.088 -1.104,-0.039 -1.645,0.105c1.821,-2.393 6.612,-8.698 6.799,-8.948m-8.954,14.512c0,-0.821 0.101,-1.569 0.286,-2.227c0.208,-0.724 0.522,-1.352 0.928,-1.866c0.797,-0.538 1.62,-0.75 2.451,-0.626c1.389,0.199 2.783,1.307 4.039,3.199c0.082,0.123 0.22,0.201 0.373,0.211c0.15,0.01 0.292,-0.051 0.393,-0.164l2.119,-2.44c0.036,1.396 0.242,2.813 0.685,4.172c0.5,1.536 1.385,3.203 2.885,4.621c-0.282,0.064 -0.552,0.128 -0.852,0.208c-0.713,0.186 -1.595,0.416 -3.244,0.706l-0.839,0.148c-0.96,0.169 -1.982,0.345 -3.042,0.534c-0.163,-0.01 -0.37,0.018 -0.645,0.109l0,0.002c-1.097,0.187 -2.229,0.382 -3.397,0.572c-1.486,-2.57 -2.14,-5.085 -2.14,-7.159m5.807,9.977l0.106,-0.076c0.134,-0.034 0.31,-0.212 0.447,-0.065c0.149,0.157 0.141,0.438 0.021,0.569c-0.158,0.175 -0.553,0.081 -0.666,-0.092c-0.073,-0.119 0.055,-0.255 0.092,-0.336m-0.47,-1.894c-0.052,-0.029 -0.032,-0.409 -0.167,-0.456c0.239,-0.041 0.468,-0.082 0.698,-0.121c0.037,0.196 0.052,0.396 -0.038,0.521c-0.093,0.142 -0.346,0.142 -0.493,0.056m0.553,3.082c0.158,-0.109 0.574,-0.145 0.656,0.059c0.049,0.096 0.116,0.23 0.049,0.327c-0.094,0.109 -0.41,0.209 -0.557,0.174c-0.034,-0.008 -0.562,-0.271 -0.148,-0.56m-17.335,1.395c0.224,0.089 0.546,0.089 0.683,-0.084c0.223,-0.256 -0.118,-0.962 0.268,-0.994c1.153,-0.098 1.653,0.542 1.962,0.928c0.081,0.105 -1.648,1.519 -2.157,2.346c-0.58,-0.418 -1.567,-0.601 -2.312,-0.835c0,0 -0.12,-0.476 0.239,-0.885c0.455,0.458 0.988,1.016 1.771,1.016c0.811,-0.014 1.861,-1.548 1.496,-1.815c-0.575,-0.403 -0.983,1.54 -2.021,0.858c-0.37,-0.246 -0.969,-1.009 -0.284,-1.117c0.238,-0.05 0.108,0.478 0.355,0.582m-18.57,-2.917c1.116,0.139 2.219,0.253 3.296,0.362c-0.75,0.765 0.23,2.49 -0.913,3.12c-0.188,-0.449 -0.556,-0.355 -0.871,-0.273c-0.446,0.105 -0.389,0.679 -0.243,0.84c0.436,0.445 1.713,0.285 1.373,1.299c-0.241,0.702 -0.723,1.363 -1.373,0.858c-1.295,-1.009 -1.25,-2.724 -0.794,-4.335c0.047,-0.153 0,-0.859 -0.389,-1.243c-0.139,-0.145 -0.169,-0.484 -0.086,-0.628m-0.829,0.984c0.193,0.207 0.434,0.388 0.562,0.636c0.308,0.61 -0.268,0.871 -0.562,1.238c-0.262,-0.375 -0.633,-0.763 -0.527,-1.238c0.057,-0.248 0.333,-0.429 0.527,-0.636m-22.813,-21.742a0.9003,0.9003 0 0 0 -0.071,-0.062c-0.025,-0.025 -0.044,-0.068 -0.044,-0.129c0,-0.112 0.049,-0.278 0.148,-0.46c0.698,-1.368 3.627,-3.521 6.562,-2.745c0.187,0.25 4.981,6.555 6.799,8.949c-0.54,-0.145 -1.09,-0.193 -1.645,-0.105c-1.524,0.221 -3.002,1.32 -4.324,3.117c-0.697,-0.8 -7.425,-8.565 -7.425,-8.565m4.275,11.374c0.452,-1.358 0.654,-2.776 0.689,-4.172l2.118,2.44c0.1,0.113 0.244,0.174 0.396,0.164c0.151,-0.01 0.286,-0.088 0.367,-0.211c1.259,-1.893 2.654,-3 4.041,-3.199c0.833,-0.124 1.652,0.088 2.447,0.626c0.41,0.515 0.725,1.143 0.929,1.866c0.189,0.657 0.287,1.405 0.287,2.227c0,2.074 -0.656,4.589 -2.135,7.16c-2.542,-0.417 -4.962,-0.846 -7.081,-1.218l-0.84,-0.148c-1.648,-0.29 -2.537,-0.521 -3.243,-0.706c-0.301,-0.08 -0.567,-0.144 -0.854,-0.208c1.502,-1.418 2.38,-3.085 2.879,-4.621m-30.656,13.548c0.082,-1.025 0.44,-1.739 1.134,-2.244c1.811,-1.321 6.09,-1.226 12.707,0.277c-0.1,2.788 -0.1,4.309 -0.036,5.143c0.058,0.991 0.198,2.06 0.585,2.465c0.872,0.91 2.594,0.807 4.283,0.681c1.211,-0.088 2.587,-0.188 3.001,0.229c0.063,0.064 0.154,0.189 0.128,0.495c-0.031,0.462 -0.197,0.786 -0.513,1.004c-1.356,0.96 -5.142,-0.073 -8.189,-0.904c-1.368,-0.372 -2.659,-0.724 -3.711,-0.908c-3.453,-0.593 -7.296,-1.107 -9.198,0.392c-0.13,0.102 -0.235,0.221 -0.345,0.337c-0.07,-2.175 0.015,-5.214 0.154,-6.967m14.919,4.01c0.639,-0.767 1.569,-0.938 3.26,-1.172c1.16,-0.16 2.255,-0.261 3.312,-0.298c0.28,0.263 0.569,1.153 0.602,2.433c0.007,0.238 0.002,0.466 -0.01,0.687c-0.787,-0.487 -2.094,-0.399 -3.481,-0.297c-1.39,0.1 -2.968,0.215 -3.497,-0.368c-0.188,-0.209 -0.245,-0.534 -0.186,-0.985m-9.549,8.076c-2.912,-0.501 -5.106,-1.778 -5.367,-3.119c0.057,-0.69 0.312,-1.207 0.783,-1.585c1.522,-1.189 4.955,-0.798 8.439,-0.195c1.01,0.172 2.279,0.522 3.62,0.885c3.577,0.976 7.275,1.987 9.002,0.769c0.045,-0.037 0.079,-0.072 0.118,-0.105c0.009,-0.006 0.024,-0.006 0.032,-0.014c0.84,-0.591 1.099,-2.333 1.058,-3.774c-0.012,-0.546 -0.099,-1.618 -0.455,-2.425c3.611,-0.006 6.776,0.645 10.354,1.468c-9.973,8.364 -22.225,9.009 -27.584,8.095m42.493,-6.288c-5.569,-0.624 -9.775,-1.604 -13.427,-2.455c-1.965,-0.456 -3.786,-0.881 -5.593,-1.197c-0.02,-2.195 0.535,-4.562 0.192,-6.755c-0.011,-0.049 -0.491,-0.008 -0.777,-0.008c0.113,2.117 -0.617,4.422 -0.477,6.584c-3.015,-0.461 -6.061,-0.601 -9.739,-0.082c-1.333,0.187 -2.438,0.364 -3.295,0.994c-0.014,-0.266 -0.023,-0.606 -0.023,-1.102c0,-1.287 0.052,-3.443 0.212,-7.03l0.009,-0.26c0.115,-2.624 3.899,-3.057 7.048,-2.955c4.322,0.143 5.056,0.333 6.395,0.681c0.719,0.188 1.615,0.421 3.271,0.715c0.091,0.051 0.192,0.1 0.274,0.143c0.783,0.279 1.418,1.854 1.438,2.894c0.055,2.131 -1.037,4.328 -0.12,6.422c0.036,0.074 0.343,0.023 0.534,0.023c-0.466,-2.72 1.542,-5.65 0.048,-8.239c-0.107,-0.195 -0.058,-0.698 0.15,-0.834c4.368,0.764 9.703,1.682 14.825,2.347c-0.292,0.318 -0.885,1.1 -1.012,1.465c-0.397,1.161 0.602,2.3 -0.259,3.495c-0.374,0.53 0.416,1.342 0.312,1.749c-0.211,0.861 -1.809,1.558 -1.127,2.407c0.547,0.669 0.852,-1.14 1.242,-0.953c0.617,0.308 0.173,1.615 -0.101,1.951m1.093,-5.718c0.341,-0.125 0.617,0.685 0.748,1.143c0.086,0.275 -0.253,0.871 -0.481,0.8c-0.89,-0.261 -1.233,-1.575 -0.267,-1.943m19.086,6.157c-0.003,0.018 0.016,0.031 0.023,0.051c-1.893,0.098 -3.927,0.151 -6.115,0.151c-0.327,0 -0.644,-0.008 -0.967,-0.008c-0.321,0 -0.637,0.008 -0.963,0.008c-4.161,0 -7.743,-0.198 -10.911,-0.509c-0.1,-0.278 -0.273,-1.216 0.092,-1.249c0.472,-0.043 1.095,0.581 1.354,0.185c0.592,-0.928 -0.603,-1.608 -1.361,-2.109c0.193,-0.21 0.479,-0.587 0.548,-0.546c1.271,0.786 3.486,1.029 3.719,-0.721c0.21,-1.646 1.227,-3.469 0.333,-5.144c-0.005,-0.045 -0.013,-0.076 -0.02,-0.107c2.245,0.207 4.375,0.332 6.247,0.332c0.31,0 0.641,-0.01 0.963,-0.016c0.323,0.006 0.654,0.016 0.967,0.016c1.865,0 3.983,-0.123 6.224,-0.33l0.016,0.139c0,0.209 0.323,0.83 -0.534,0.918c-1.878,0.176 -2.477,4.729 -1.468,4.761c0.696,0.035 0.352,-0.736 0.508,-1.086c0.073,-0.159 1.558,0.34 2.111,0.798c-0.497,0.908 -0.683,1.973 -0.756,3.027c-0.019,0.386 0.017,1.335 -0.01,1.439m0.842,0l0,-0.215c0.125,-1.049 0.245,-2.649 0.567,-3.219c0.407,-0.704 1.011,0.569 1.068,0.731c0.212,0.603 0.708,2.139 0.733,2.54c-0.767,0.061 -1.554,0.118 -2.368,0.163m18.649,-2.894c-4.082,0.953 -8.856,2.066 -15.467,2.657c0.067,-0.07 0.094,-0.155 0.056,-0.249c0,0 -0.342,-2.864 -1.978,-4.283c0.515,-0.599 1.494,-1.87 1.891,-1.821c0.226,0.02 0.046,1.156 0.254,1.315c0.133,0.104 0.792,0.113 0.813,-0.067c0.119,-1.209 -0.588,-4.4 -3.713,-4.063l0.072,-0.562l0.008,-0.156c4.9,-0.509 10.292,-1.362 15.03,-2.174c-0.143,0.064 -0.241,0.154 -0.233,0.307c0.021,0.632 0.695,0.91 1.208,0.818c0.152,-0.027 0.13,0.332 0.014,0.472c-0.201,0.211 -0.907,0.346 -0.85,1.172c0.166,2.769 2.049,1.424 2.158,1.71c0.206,0.546 -1.152,0.25 -1.152,0.759c0.011,0.703 1.615,-0.055 1.662,0.107c0.24,0.779 -1.865,0.267 -1.847,1.023c0.016,0.777 2.126,-0.039 2.148,0.12c0.187,0.767 -1.196,0.248 -1.169,0.999c0.019,0.315 0.525,0.28 0.791,0.206c0.576,-0.165 1.147,-0.349 1.607,-0.742c0.205,0.202 0.29,0.476 0.388,0.732c0.131,0.355 0.055,0.739 0.131,1.164c-0.007,0.051 0.002,0.092 0.007,0.137c-0.597,0.133 -1.206,0.277 -1.829,0.419m29.063,8.743c-5.359,0.914 -17.607,0.27 -27.577,-8.097c3.578,-0.823 6.742,-1.474 10.353,-1.468c-0.357,0.807 -0.442,1.879 -0.458,2.425c-0.039,1.441 0.22,3.184 1.059,3.774c0.01,0.008 0.021,0.008 0.035,0.014c0.041,0.033 0.071,0.068 0.112,0.105c1.73,1.219 5.43,0.207 9.007,-0.769c1.345,-0.362 2.612,-0.713 3.619,-0.885c3.484,-0.603 6.92,-0.994 8.434,0.195c0.476,0.378 0.729,0.895 0.786,1.585c-0.265,1.342 -2.454,2.62 -5.37,3.121m5.528,-5.121c-0.107,-0.116 -0.218,-0.235 -0.346,-0.337c-1.904,-1.499 -5.748,-0.984 -9.193,-0.392c-1.055,0.185 -2.348,0.536 -3.71,0.908c-3.048,0.831 -6.839,1.864 -8.195,0.904c-0.316,-0.218 -0.478,-0.542 -0.514,-1.004c-0.022,-0.306 0.061,-0.431 0.13,-0.495c0.412,-0.417 1.788,-0.317 3,-0.229c1.689,0.126 3.41,0.229 4.281,-0.681c0.385,-0.405 0.525,-1.474 0.589,-2.465c0.065,-0.834 0.063,-2.354 -0.034,-5.143c6.614,-1.503 10.891,-1.599 12.701,-0.277c0.693,0.505 1.055,1.219 1.137,2.244c0.14,1.755 0.224,4.794 0.154,6.967" fill="#6E1E6F" id="svg_10"/>
 </g>

</svg>