<?xml version="1.0" standalone="yes"?>
<svg xmlns="http://www.w3.org/2000/svg" width="315" height="316">
<path style="fill:#fcfcfd; stroke:none;" d="M0 0L0 316L315 316L315 0L0 0z"/>
<path style="fill:#cb99aa; stroke:none;" d="M150 10L150 11L170 11L150 10M140 11L140 12L143 12L140 11z"/>
<path style="fill:#04a1c7; stroke:none;" d="M143 11L144 12L143 11z"/>
<path style="fill:#14268c; stroke:none;" d="M144 11.4244C120.165 14.5922 97.263 21.7888 77 35.0787C60.7404 45.7428 46.2758 59.9144 35.3441 76C-21.4705 159.601 21.3306 276.593 118 305.279C137.942 311.197 159.461 312.269 180 309.714C200.356 307.181 220.541 299.884 238 289.189C319.863 239.04 335.173 118.682 263.999 52.0895C245.812 35.073 223.882 22.8458 200 16C182.461 10.9725 162.151 9.01196 144 11.4244z"/>
<path style="fill:#cb99aa; stroke:none;" d="M176 11L176 12L180 12L176 11M133 12L133 13L136 13L133 12M183 12L183 13L186 13L183 12M128.667 13.3333L129.333 13.6667L128.667 13.3333z"/>
<path style="fill:#04a1c7; stroke:none;" d="M130 13L131 14L130 13z"/>
<path style="fill:#cb99aa; stroke:none;" d="M189.667 13.3333L190.333 13.6667L189.667 13.3333M124.667 14.3333L125.333 14.6667L124.667 14.3333M194.667 14.3333L195.333 14.6667L194.667 14.3333M120.667 15.3333L121.333 15.6667L120.667 15.3333M198 15L199 16L198 15M116.667 16.3333L117.333 16.6667L116.667 16.3333M201.667 16.3333L202.333 16.6667L201.667 16.3333M113.667 17.3333L114.333 17.6667L113.667 17.3333M205 17L206 18L205 17M110.667 18.3333L111.333 18.6667L110.667 18.3333M208 18L209 19L208 18M108 19L109 20L108 19M211 19L212 20L211 19M105 20L106 21L105 20M147 20L147 21L154 21L147 20z"/>
<path style="fill:#fcfcfd; stroke:none;" d="M154 20.4244C118.232 25.1207 86.4664 34.6123 60.0394 61.0394C47.8436 73.2351 37.8248 88.2492 30.8619 104C-13.5238 204.405 73.6604 314.933 181 299.715C253.446 289.443 304.843 222.031 299.91 150C295.132 80.217 227.61 10.7594 154 20.4244z"/>
<path style="fill:#cb99aa; stroke:none;" d="M166 20L166 21L172 21L166 20z"/>
<path style="fill:#04a1c7; stroke:none;" d="M172 20L173 21L172 20z"/>
<path style="fill:#cb99aa; stroke:none;" d="M213 20L214 21L213 20M102.667 21.3333L103.333 21.6667L102.667 21.3333M138 21L138 22L142 22L138 21M178 21L178 22L181 22L178 21M216 21L217 22L216 21M100 22L101 23L100 22M133.667 22.3333L134.333 22.6667L133.667 22.3333M184 22L184 23L187 23L184 22M218 22L219 23L218 22M98 23L99 24L98 23M128.667 23.3333L129.333 23.6667L128.667 23.3333M189.667 23.3333L190.333 23.6667L189.667 23.3333z"/>
<path style="fill:#04a1c7; stroke:none;" d="M220 23L221 24L220 23z"/>
<path style="fill:#cb99aa; stroke:none;" d="M221 23L222 24L221 23M96 24L97 25L96 24M124.667 24.3333L125.333 24.6667L124.667 24.3333M194 24L195 25L194 24z"/>
<path style="fill:#04a1c7; stroke:none;" d="M195 24L196 25L195 24z"/>
<path style="fill:#cb99aa; stroke:none;" d="M223 24L224 25L223 24z"/>
<path style="fill:#04a1c7; stroke:none;" d="M94 25L95 26L94 25z"/>
<path style="fill:#cb99aa; stroke:none;" d="M120.667 25.3333L121.333 25.6667L120.667 25.3333M197.667 25.3333L198.333 25.6667L197.667 25.3333M225 25L226 26L225 25z"/>
<path style="fill:#04a1c7; stroke:none;" d="M92 26L93 27L92 26z"/>
<path style="fill:#cb99aa; stroke:none;" d="M117 26L118 27L117 26M201 26L202 27L201 26M227 26L228 27L227 26M90 27L91 28L90 27M114 27L115 28L114 27M204 27L205 28L204 27M229 27L230 28L229 27M88 28L89 29L88 28M111 28L112 29L111 28M207 28L208 29L207 28M231 28L232 29L231 28M86 29L87 30L86 29M109 29L110 30L109 29M210 29L211 30L210 29M84 30L85 31L84 30M106 30L107 31L106 30M212 30L213 31L212 30M234 30L235 31L234 30M104 31L105 32L104 31M215 31L216 32L215 31M236 31L237 32L236 31M81 32L82 33L81 32M101 32L102 33L101 32M217 32L218 33L217 32M79 33L80 34L79 33M99 33L100 34L99 33M177 33L178 34L177 33z"/>
<path style="fill:#f71616; stroke:none;" d="M176 34L178 38L180 38L181 37L176 34z"/>
<path style="fill:#cb99aa; stroke:none;" d="M219 33L220 34L219 33M239 33L240 34L239 33M97 34L98 35L97 34M186 34L188 36L186 34M221 34L222 35L221 34M241 34L242 35L241 34M76 35L77 36L76 35M95 35L96 36L95 35M136.667 35.3333L137.333 35.6667L136.667 35.3333z"/>
<path style="fill:#f71616; stroke:none;" d="M124 36L122 45L126 44C125.276 49.5271 117.599 57.8017 124 62L124 52L127 58L139 55L139 56L135 57C139.629 61.0149 142.886 55.4779 144 51L141 50L143 45L140 40L126 43L140 35L124 36z"/>
<path style="fill:#cb99aa; stroke:none;" d="M176 35L177 36L176 35M184.333 35.6667L184.667 36.3333L184.333 35.6667z"/>
<path style="fill:#f71616; stroke:none;" d="M185 35L185 39L180 41L187 45L180 44L186 48L177 53L184 54L184 61L186 61L187 55C190.552 55.909 193.504 57.0786 196 54L188 52L188 50L189 49L195 50L190 47L190 43L198 45L194 41L196 38L188 40L187 35L185 35z"/>
<path style="fill:#cb99aa; stroke:none;" d="M223 35L224 36L223 35M242 35L243 36L242 35M93 36L94 37L93 36M127 36L130 38L130 37L127 36M132.667 36.3333L133.333 36.6667L132.667 36.3333M140.333 36.6667L140.667 37.3333L140.333 36.6667M193 36L194 37L193 36M225 36L226 37L225 36M244 36L245 37L244 36M73 37L74 38L73 37M180 37L178 38L178 39L180 37M192 37L193 38L192 37M195 37L196 38L195 37M227 37L228 38L227 37M245 37L246 38L245 37M72 38L73 39L72 38M90 38L91 39L90 38z"/>
<path style="fill:#f71616; stroke:none;" d="M117 38C117.86 41.0809 118.908 41.522 122 41L117 38z"/>
<path style="fill:#cb99aa; stroke:none;" d="M119 38L120 39L119 38M136 38L136 39L140 40L140 39L136 38M182.667 38.3333L183.333 38.6667L182.667 38.3333M188.333 38.6667L188.667 39.3333L188.333 38.6667M191 38L192 39L191 38M229 38L230 39L229 38M70 39L71 40L70 39M88 39L89 40L88 39M116.333 39.6667L116.667 40.3333L116.333 39.6667M121 39L122 40L121 39M123.333 39.6667L123.667 40.3333L123.333 39.6667M132.667 39.3333L133.333 39.6667L132.667 39.3333z"/>
<path style="fill:#fcfcfd; stroke:none;" d="M127 41L127 42L138 40L127 41z"/>
<path style="fill:#cb99aa; stroke:none;" d="M173 40L173 41L177 41L173 40M248 39L249 40L248 39M69 40L70 41L69 40M86 40L87 41L86 40M128.667 40.3333L129.333 40.6667L128.667 40.3333M135 40L136 41L135 40z"/>
<path style="fill:#f71616; stroke:none;" d="M173 41L175 45L178 43L173 41z"/>
<path style="fill:#cb99aa; stroke:none;" d="M194 40L195 41L194 40M232 40L233 41L232 40M85 41L86 42L85 41M118 41L119 42L118 41M121 41L121 45L122 45L121 41M126 41L126 43L128 43L126 41M131 41L132 42L131 41M182.667 41.3333L183.333 41.6667L182.667 41.3333M195.667 41.3333L196.333 41.6667L195.667 41.3333M234 41L235 42L234 41M251 41L252 42L251 41M83 42L84 43L83 42z"/>
<path style="fill:#fcfcfd; stroke:none;" d="M121 42L122 43L121 42z"/>
<path style="fill:#cb99aa; stroke:none;" d="M173 42L174 43L173 42M186 42L187 43L186 42M198 42L199 43L198 42M235 42L236 43L235 42M252 42L253 43L252 42M65 43L66 44L65 43M134.667 43.3333L135.333 43.6667L134.667 43.3333z"/>
<path style="fill:#fcfcfd; stroke:none;" d="M134 44L134 45L137 46L137 43L134 44z"/>
<path style="fill:#cb99aa; stroke:none;" d="M140.333 43.6667L140.667 44.3333L140.333 43.6667M174 43L175 44L174 43M177 43L178 44L177 43M190.667 43.3333L191.333 43.6667L190.667 43.3333M237 43L238 44L237 43M253 43L254 44L253 43M64 44L65 45L64 44M80 44L81 45L80 44M125 44L126 45L125 44M130.667 44.3333L131.333 44.6667L130.667 44.3333M137.333 44.6667L137.667 45.3333L137.333 44.6667M142 44L143 45L142 44M176 44L177 45L176 44M182 44L183 45L182 44M186 44L187 45L186 44M194.667 44.3333L195.333 44.6667L194.667 44.3333M238 44L239 45L238 44M117 47L120 46L117 47M123.667 45.3333L124.333 45.6667L123.667 45.3333z"/>
<path style="fill:#fcfcfd; stroke:none;" d="M129 45L130 48L131 48L131 45L129 45z"/>
<path style="fill:#cb99aa; stroke:none;" d="M135 45L136 46L135 45M143 45L143 48L144 48L143 45M240 45L241 46L240 45M77 46L78 47L77 46z"/>
<path style="fill:#f71616; stroke:none;" d="M117 47L117 48L122 50C121 46.9641 120.137 46.5056 117 47z"/>
<path style="fill:#cb99aa; stroke:none;" d="M121 46L122 47L121 46M129.333 46.6667L129.667 47.3333L129.333 46.6667M131.333 46.6667L131.667 47.3333L131.333 46.6667M175 46L174 48L175 46M179 46L180 47L179 46M190.667 46.3333L191.333 46.6667L190.667 46.3333M241 46L242 47L241 46M257 46L258 47L257 46M76 47L77 48L76 47M122.333 47.6667L122.667 48.3333L122.333 47.6667z"/>
<path style="fill:#f71616; stroke:none;" d="M172 57L177 47C173.059 49.0033 169.45 52.6039 172 57z"/>
<path style="fill:#cb99aa; stroke:none;" d="M180 47L180 48L183 48L180 47M194 47L195 48L194 47M258 47L259 48L258 47M59 48L60 49L59 48M117 48L118 49L117 48M141.333 48.6667L141.667 49.3333L141.333 48.6667M177 48L176 51L177 48M185.333 48.6667L185.667 49.3333L185.333 48.6667M195 48L196 49L195 48M244 48L245 49L244 48M259 48L260 49L259 48M58 49L59 50L58 49M73 49L74 50L73 49M135.333 49.6667L135.667 50.3333L135.333 49.6667z"/>
<path style="fill:#fcfcfd; stroke:none;" d="M136 49L139 52L136 49z"/>
<path style="fill:#cb99aa; stroke:none;" d="M138.333 49.6667L138.667 50.3333L138.333 49.6667M189.667 49.3333L190.333 49.6667L189.667 49.3333M245 49L246 50L245 49M57 50L58 51L57 50M72 50L73 51L72 50M131.667 50.3333L132.333 50.6667L131.667 50.3333M172 50L173 51L172 50M180.667 50.3333L181.333 50.6667L180.667 50.3333M188.333 50.6667L188.667 51.3333L188.333 50.6667M193.667 50.3333L194.333 50.6667L193.667 50.3333M56 51L57 52L56 51z"/>
<path style="fill:#fcfcfd; stroke:none;" d="M130 51L130 54L133 53L133 52L130 51z"/>
<path style="fill:#cb99aa; stroke:none;" d="M144 51L144 54L145 54L144 51M171 51L172 52L171 51M248 51L249 52L248 51M55 52L56 53L55 52M121 52L121 57L122 57L121 52M124 52L125 53L124 52M133 52L132 54L134 54L133 52M136.667 52.3333L137.333 52.6667L136.667 52.3333M170 52L171 53L170 52M189.667 52.3333L190.333 52.6667L189.667 52.3333M249 52L250 53L249 52M54 53L55 54L54 53M68 53L69 54L68 53M174 53L175 54L174 53M179.667 53.3333L180.333 53.6667L179.667 53.3333M193.667 53.3333L194.333 53.6667L193.667 53.3333M250 53L251 54L250 53M53 54L54 55L53 54M67 54L68 55L67 54M142.333 54.6667L142.667 55.3333L142.333 54.6667M173 54L174 55L173 54M52 55L53 56L52 55M66 55L67 56L66 55M124 55L124 59L125 59L124 55M136 55L136 57L138 57L138 55L136 55z"/>
<path style="fill:#fcfcfd; stroke:none;" d="M138 55L139 56L138 55z"/>
<path style="fill:#cb99aa; stroke:none;" d="M170 55L171 56L170 55M187.667 55.3333L188.333 55.6667L187.667 55.3333M195.333 55.6667L195.667 56.3333L195.333 55.6667M51 56L52 57L51 56M65 56L66 57L65 56M83 56L86 59L83 56M132.667 56.3333L133.333 56.6667L132.667 56.3333M183.333 56.6667L183.667 57.3333L183.333 56.6667M192.667 56.3333L193.333 56.6667L192.667 56.3333M50 57L51 58L50 57z"/>
<path style="fill:#f71616; stroke:none;" d="M81 89L99 75C96.2993 70.6823 88.6353 58.216 82.9961 58.2068C79.6999 58.2014 76.2861 62.4293 74.0008 64.4244C71.8664 66.2876 68.2407 68.8273 68.2029 72C68.1361 77.6122 77.7663 84.7552 81 89z"/>
<path style="fill:#cb99aa; stroke:none;" d="M129 57L130 58L129 57M141 57L142 58L141 57M49 58L50 59L49 58M140 58L141 59L140 58M226 59L226 60L232 62L226 59M256 58L257 59L256 58M48 59L49 60L48 59M120.333 59.6667L120.667 60.3333L120.333 59.6667M136 59L137 60L136 59M138 59L139 60L138 59M186.333 59.6667L186.667 60.3333L186.333 59.6667z"/>
<path style="fill:#f71616; stroke:none;" d="M226 60L234 67L234 68L217 72L217 74L231 74L234 88L236 70L245 76L239 60L236 65L226 60z"/>
<path style="fill:#cb99aa; stroke:none;" d="M257 59L258 60L257 59M47 60L48 61L47 60M78 60L79 61L78 60M183 60L184 61L183 60M240 60L241 61L240 60M258 60L259 61L258 60M271 60L272 61L271 60M46 61L47 62L46 61M77 61L78 62L77 61z"/>
<path style="fill:#fcfcfd; stroke:none;" d="M82 61L71 72C75.0423 70.1261 82.1063 65.8762 82 61z"/>
<path style="fill:#cb99aa; stroke:none;" d="M83 61L85 64L83 61M121 61L122 62L121 61M226 61L227 62L226 61M238 61L239 62L238 61M241 61L242 62L241 61M259 61L260 62L259 61M272 61L273 62L272 61M76 62L77 63L76 62M123 62L124 63L123 62M237 62L238 63L237 62M242 62L243 63L242 62M260 62L261 63L260 62M273 62L274 63L273 62M75 63L76 64L75 63z"/>
<path style="fill:#f71616; stroke:none;" d="M74 74L80 72L78 78L83 75L84 76L80 82L93 74L93 73L87 71L87 67L81 69L85 64C79.9543 63.9243 73.9153 68.7638 74 74z"/>
<path style="fill:#cb99aa; stroke:none;" d="M89 63L90 64L89 63M229 63L230 64L229 63M234 63L235 64L234 63M236 63L237 64L236 63M241 63L242 64L241 63M261 63L262 64L261 63M274 63L275 64L274 63z"/>
<path style="fill:#fcfcfd; stroke:none;" d="M85 64L81 69L82 70L87 67L91 71L85 64z"/>
<path style="fill:#cb99aa; stroke:none;" d="M90 64L91 65L90 64M230 64L231 65L230 64M235 64L236 65L235 64M43 65L44 66L43 65M77 65L78 66L77 65M84 65L85 66L84 65M91 65L92 66L91 65M231 65L232 66L231 65M42 66L43 67L42 66M55 66L56 67L55 66M76 66L77 67L76 66M78 66L79 67L78 66M92 66L93 67L92 66M148.667 66.3333L149.333 66.6667L148.667 66.3333z"/>
<path style="fill:#04a1c7; stroke:none;" d="M65 177C84.3939 167.945 101.003 160.47 123 164.463C137.101 167.023 148.015 175.287 161 180.547C179.784 188.156 200.78 188.952 220 182.484C230.083 179.09 246.784 171.879 251.972 161.961C254.684 156.777 252.754 148.437 251.739 143C248.168 123.87 238.768 106.674 224.999 93.0039C180.387 48.7115 100.494 61.6809 73.3202 119C64.2222 138.191 64.1154 156.397 65 177z"/>
<path style="fill:#cb99aa; stroke:none;" d="M167.667 66.3333L168.333 66.6667L167.667 66.3333M41 67L42 68L41 67M54 67L55 68L54 67M70 67L71 68L70 67M75 67L76 68L75 67M77 67L78 68L77 67M85 67L86 68L85 67M88 67L89 68L88 67M141.667 67.3333L142.333 67.6667L141.667 67.3333M175 67L176 68L175 67M233 67L234 68L233 67M239 67L240 68L239 67M277 67L278 68L277 67M53 68L54 69L53 68M69 68L70 69L69 68M74 68L75 69L74 68M76 68L77 69L76 68M84 68L85 69L84 68M89 68L90 69L89 68M137 68L138 69L137 68M180 68L181 69L180 68M232 68L233 69L232 68M240 68L241 69L240 68M278 68L279 69L278 68M52 69L53 70L52 69M68 69L69 70L68 69M75 69L76 70L75 69M83 69L84 70L83 69M90 69L91 70L90 69M133 69L134 70L133 69M184 69L185 70L184 69M231 69L232 70L231 69M241 69L242 70L241 69M266 69L267 70L266 69M39 70L40 71L39 70M67 70L68 71L67 70M87 70L87 71L90 71L87 70M91 70L90 72L92 72L91 70M129 70L130 71L129 70M187 70L188 71L187 70M217 70L217 72L219 70L217 70M229 70L230 71L229 70M237 70L238 71L237 70M267 70L268 71L267 70M38 71L39 72L38 71M66 71L67 72L66 71M77 71L76 73L77 71z"/>
<path style="fill:#fcfcfd; stroke:none;" d="M78 71L74 74C76.3071 78.8747 79.1127 80.8577 84 78L84 77L82 75L81 75L76 77L76 75L80 72L78 71z"/>
<path style="fill:#cb99aa; stroke:none;" d="M96 71L97 72L96 71M190 71L191 72L190 71M221 71L222 72L221 71M227 71L228 72L227 71M235 71L236 72L235 71M244 71L245 72L244 71M268 71L269 72L268 71M280 71L281 72L280 71M71 72L71 73L73 75L74 75L71 72M85.3333 72.6667L85.6667 73.3333L85.3333 72.6667M92 72L93 73L92 72M97 72L98 73L97 72M240 72L241 73L240 72M245 72L246 73L245 72M281 72L282 73L281 72M49 73L50 74L49 73z"/>
<path style="fill:#fcfcfd; stroke:none;" d="M72 73L73 74L72 73M86 73L86 75L88 73L86 73M93 73L82 84C85.9386 82.1659 93.1067 77.7357 93 73z"/>
<path style="fill:#cb99aa; stroke:none;" d="M98 73L99 74L98 73M121 73L122 74L121 73M195 73L196 74L195 73M241 73L242 74L241 73M246 73L247 74L246 73M36 74L37 75L36 74M48 74L49 75L48 74M68 74L69 75L68 74M87 74L88 75L87 74M119 74L120 75L119 74M217.667 74.3333L218.333 74.6667L217.667 74.3333M229 74L230 75L229 74M234 74L234 81L235 81L234 74M242 74L243 75L242 74M69 75L70 76L69 75M76.3333 75.6667L76.6667 76.3333L76.3333 75.6667M82 75L83 76L82 75M90 75L91 76L90 75M98 75L99 76L98 75M222 75L222 76L227 76L222 75M245 75L246 76L245 75M271 75L272 76L271 75M283 75L284 76L283 75M70 76L71 77L70 76M83 76L84 77L83 76M89 76L90 77L89 76M96.6667 76.3333L97.3333 76.6667L96.6667 76.3333M272 76L273 77L272 76M284 76L285 77L284 76M34 77L35 78L34 77M46 77L47 78L46 77M71 77L72 78L71 77M77 77L78 78L77 77M88 77L89 78L88 77M90 77L91 78L90 77M95 77L96 78L95 77M113 77L114 78L113 77M45 78L46 79L45 78M76 78L77 79L76 78M87 78L88 79L87 78M89 78L90 79L89 78M111 78L112 79L111 78M285 78L286 79L285 78M77 79L78 80L77 79M86 79L87 80L86 79M88 79L89 80L88 79M207 79L208 80L207 79M274 79L275 80L274 79M32 80L33 81L32 80M78 80L79 81L78 80M80 80L81 81L80 80M87 80L88 81L87 80M43 81L44 82L43 81M79 81L80 82L79 81M90 81L91 82L90 81M210 81L211 82L210 81M287 81L288 82L287 81M75 82L76 83L75 82M80 82L81 83L80 82M89 82L90 83L89 82M231.333 82.6667L231.667 83.3333L231.333 82.6667M276 82L277 83L276 82M30 83L31 84L30 83M76 83L77 84L76 83M81 83L82 84L81 83M88 83L89 84L88 83M213 83L214 84L213 83M277 83L278 84L277 83M41 84L42 85L41 84M77 84L78 85L77 84M82 84L83 85L82 84M87 84L88 85L87 84M102 84L103 85L102 84M236 84L237 85L236 84M289 84L290 85L289 84M29 85L30 86L29 85M78 85L79 86L78 85M232 85L233 86L232 85M278 85L279 86L278 85M79 86L80 87L79 86M217 86L218 87L217 86M236 86L237 87L236 86M290 86L291 87L290 86M28 87L29 88L28 87M39 87L40 88L39 87M84 87L85 88L84 87M98 87L99 88L98 87M233 87L234 88L233 87M27 88L28 89L27 88M83 88L84 89L83 88M280 88L281 89L280 88M291 88L292 89L291 88M38 89L39 90L38 89M82 89L83 90L82 89M26 90L27 91L26 90M281 90L282 91L281 90M292 90L293 91L292 90M25 92L26 93L25 92M36 92L37 93L36 92M224 92L225 93L224 92M282 92L283 93L282 92M225 93L226 94L225 93z"/>
<path style="fill:#04a1c7; stroke:none;" d="M283 93L284 94L283 93z"/>
<path style="fill:#cb99aa; stroke:none;" d="M294 93L295 94L294 93M24 94L25 95L24 94M35 94L36 95L35 94M226 94L227 95L226 94M123 95L124 96L123 95z"/>
<path style="fill:#fcfcfd; stroke:none;" d="M118 98L121 99L121 113L127 114L127 95L118 98z"/>
<path style="fill:#cb99aa; stroke:none;" d="M127 95L127 113L128 113L127 95z"/>
<path style="fill:#fcfcfd; stroke:none;" d="M149 106C146.821 110.359 143.73 111.571 139 112C148.935 116.169 163.021 102.792 151.852 96.179C137.341 87.5873 129.619 111.727 149 106z"/>
<path style="fill:#cb99aa; stroke:none;" d="M160 95L161 96L160 95z"/>
<path style="fill:#fcfcfd; stroke:none;" d="M158 99L170 98L158 114L176 113L176 112L164 112C166.385 107.578 174.426 105.053 175.079 100.029C176.087 92.2651 160.598 94.5534 158 99z"/>
<path style="fill:#cb99aa; stroke:none;" d="M172 95L173 96L172 95z"/>
<path style="fill:#fcfcfd; stroke:none;" d="M175 107C181.432 107 187.399 106.122 188 114L194 113L197 107L197 106L194 106L194 95C185.728 95.0977 179.664 100.434 175 107z"/>
<path style="fill:#cb99aa; stroke:none;" d="M227 95L228 96L227 95M284 95L285 96L284 95M295 95L296 96L295 95M23 96L24 97L23 96M34 96L35 97L34 96M120 96L121 97L120 96z"/>
<path style="fill:#04a1c7; stroke:none;" d="M295 96L296 97L295 96M143 105L148 105C147.901 96.6356 143.099 96.6356 143 105z"/>
<path style="fill:#cb99aa; stroke:none;" d="M161 97L162 98L161 97M285 97L286 98L285 97M22 98L23 99L22 98M33 98L34 99L33 98M157 98L158 99L157 98M169 98L170 99L169 98M183 98L184 99L183 98M184 101L187 99L187 104L188 104L188 98L184 101M296 98L297 99L296 98M142 99L142 104L143 104L142 99M148 99L148 104L149 104L148 99M182 99L183 100L182 99z"/>
<path style="fill:#04a1c7; stroke:none;" d="M186 99L180 105L188 105L186 99z"/>
<path style="fill:#cb99aa; stroke:none;" d="M286 99L287 100L286 99M32 100L33 101L32 100M85 100L86 101L85 100M271 101L271 102L274 102L271 101M297 100L298 101L297 100M21 101L22 102L21 101M175 101L176 102L175 101M232 101L233 102L232 101M264 101L265 102L264 101z"/>
<path style="fill:#f71616; stroke:none;" d="M261 103L262 106L266 105L272 121L269 122L269 124L270 125L276 123L274 118L280 119L280 115L273 116L269 106L275 102L272 101L270 105L268 105L267 101L261 103z"/>
<path style="fill:#cb99aa; stroke:none;" d="M287 101L288 102L287 101M31 102L32 103L31 102M168 102L169 103L168 102M174 102L175 103L174 102M233 102L234 103L233 102M262 102L263 103L262 102M267 102L268 103L267 102M298 102L299 103L298 102M20 103L21 104L20 103M48 103L49 104L48 103M173 103L174 104L173 103M177 103L178 104L177 103M270 103L271 104L270 103M274 103L275 104L274 103M30 104L31 105L30 104z"/>
<path style="fill:#f71616; stroke:none;" d="M48 104L45 113L40 111L39 112L39 114L43 116L40 125L51 129L53 121L62 124L63 120C55.5235 117.354 57.5323 114.518 59 108L48 104z"/>
<path style="fill:#cb99aa; stroke:none;" d="M50 104L51 105L50 104M136 104L137 105L136 104M176 104L177 105L176 104M179.333 104.667L179.667 105.333L179.333 104.667M255 104L256 105L255 104z"/>
<path style="fill:#f71616; stroke:none;" d="M256 104L259 117L255 114L254 114C253.256 119.189 256.398 120.601 261 119L264 128L267 127L265 120L269 121L265 107L262 108L264 112L258 104L256 104z"/>
<path style="fill:#cb99aa; stroke:none;" d="M258.333 104.667L258.667 105.333L258.333 104.667M261 104L262 105L261 104M268.667 104.333L269.333 104.667L268.667 104.333M288 104L289 105L288 104M19.3333 105.667L19.6667 106.333L19.3333 105.667M47 105L48 106L47 105M53 105L54 106L53 105M81 105L82 106L81 105M145 105L146 106L145 105M170 105L171 106L170 105M175 105L176 106L175 105M181 105L181 106L187 106L181 105M194 105L194 106L197 106L194 105M264.667 105.333L265.333 105.667L264.667 105.333M273 105L274 106L273 105M299 105L300 106L299 105M55 106L56 107L55 106M138 106L139 107L138 106M148 106L149 107L148 106M162 106L163 107L162 106M168 106L169 107L168 106M236 106L237 107L236 106M255 106L256 107L255 106M269.333 106.667L269.667 107.333L269.333 106.667M272 106L273 107L272 106M276 106L279 109L276 106M289 106L290 107L289 106M29 107L30 108L29 107M57.6667 107.333L58.3333 107.667L57.6667 107.333M141 107L141 108L146 108L141 107M176 107L176 108L187 108L176 107M194 107L194 108L197 108L194 107M259 107L260 108L259 107M262 107L263 108L262 107M271 107L272 108L271 107z"/>
<path style="fill:#f71616; stroke:none;" d="M272 112L273 113L278 108L277 107L272 112z"/>
<path style="fill:#cb99aa; stroke:none;" d="M300 107L301 108L300 107M18 108L19 109L18 108M46 108L47 109L46 108M50 108L49 111L50 111L50 108M59 108L60 109L59 108M79 108L80 109L79 108M148 108L149 109L148 108M159 108L160 109L159 108M256 108L257 109L256 108M265 108L265 110L267 108L265 108M290 108L291 109L290 108M28 109L29 110L28 109z"/>
<path style="fill:#fcfcfd; stroke:none;" d="M50 109L48 114L53 115L54 110L50 109z"/>
<path style="fill:#cb99aa; stroke:none;" d="M52 109L53 110L52 109M158 109L159 110L158 109M164 109L165 110L164 109M238 109L239 110L238 109M260.333 109.667L260.667 110.333L260.333 109.667M262 109L263 110L262 109z"/>
<path style="fill:#fcfcfd; stroke:none;" d="M266 109L267 113L268 113L266 109z"/>
<path style="fill:#cb99aa; stroke:none;" d="M270 109L271 110L270 109M45 110L46 111L45 110M54 110L55 111L54 110M146 110L147 111L146 110M267 110L268 111L267 110M301 110L302 111L301 110M17 111L18 112L17 111M39 111L40 112L39 111M42 111L43 112L42 111M58 111L59 112L58 111M77 111L78 112L77 111M140 111L140 112L144 112L140 111M151 111L152 112L151 111M164 111L164 112L175 112L164 111M257 111L258 112L257 111M261 111L262 112L261 111M263 111L264 112L263 111M266 111L267 112L266 111M291 111L292 112L291 111M27 112L28 113L27 112M44 112L45 113L44 112M48 112L49 113L48 112M53 112L54 113L53 112M57 112L58 113L57 112M149 112L150 113L149 112M271 112L272 113L271 112M38 113L39 114L38 113M76 113L77 114L76 113M122 113L122 114L126 114L122 113M140 113L140 114L147 114L140 113M159 113L159 114L176 114L159 113M189 113L189 114L194 114L189 113M258 113L259 114L258 113M267.667 113.333L268.333 113.667L267.667 113.333z"/>
<path style="fill:#04a1c7; stroke:none;" d="M292 113L293 114L292 113z"/>
<path style="fill:#cb99aa; stroke:none;" d="M302 113L303 114L302 113M16 114L17 115L16 114z"/>
<path style="fill:#04a1c7; stroke:none;" d="M26 114L27 115L26 114z"/>
<path style="fill:#cb99aa; stroke:none;" d="M39 114L40 115L39 114M49 114L50 115L49 114M56 114L57 115L56 114M241 114L242 115L241 114M255 114L256 115L255 114M263 114L265 116L265 114L263 114z"/>
<path style="fill:#fcfcfd; stroke:none;" d="M268 114L269 118L270 118L268 114z"/>
<path style="fill:#cb99aa; stroke:none;" d="M272 114L273 115L272 114M274 114L275 115L274 114M292 114L293 115L292 114M26 115L27 116L26 115M41 115L42 116L41 115M51 115L52 116L51 115M269 115L270 116L269 115M273 115L274 116L273 115M280 115L280 119L281 119L280 115M242 116L243 117L242 116M252 116L253 117L252 116M256 116L257 117L256 116M258 116L259 117L258 116M268 116L269 117L268 116M293.333 116.667L293.667 117.333L293.333 116.667M303 116L304 117L303 116M15 117L16 118L15 117z"/>
<path style="fill:#04a1c7; stroke:none;" d="M25 117L26 118L25 117z"/>
<path style="fill:#cb99aa; stroke:none;" d="M42 117L43 118L42 117M46 117L47 118L46 117M56 117L57 118L56 117M25 118L26 119L25 118z"/>
<path style="fill:#fcfcfd; stroke:none;" d="M46 118C45.4213 121.423 45.6027 122.865 49 124L50 119L46 118z"/>
<path style="fill:#cb99aa; stroke:none;" d="M48.6667 118.333L49.3333 118.667L48.6667 118.333M58.6667 118.333L59.3333 118.667L58.6667 118.333M243 118L244 119L243 118M253 118L254 119L253 118M269 118L269 120L271 118L269 118M274 120L277 119L274 120M45 119L46 120L45 119M50.3333 119.667L50.6667 120.333L50.3333 119.667M61 119L62 120L61 119M254 119L255 120L254 119M260 119L261 120L260 119M264 119L265 120L264 119z"/>
<path style="fill:#04a1c7; stroke:none;" d="M294 119L295 120L294 119z"/>
<path style="fill:#cb99aa; stroke:none;" d="M304.333 119.667L304.667 120.333L304.333 119.667M14.3333 120.667L14.6667 121.333L14.3333 120.667M41 120L42 121L41 120M63.3333 120.667L63.6667 121.333L63.3333 120.667M244 120L245 121L244 120M255 120L256 121L255 120M257.667 120.333L258.333 120.667L257.667 120.333M261.333 120.667L261.667 121.333L261.333 120.667M266 120L267 121L266 120M271 120L272 121L271 120M294 120L295 121L294 120M24 121L25 122L24 121M44.3333 121.667L44.6667 122.333L44.3333 121.667M53.3333 121.667L53.6667 122.333L53.3333 121.667M56 121L57 122L56 121M270 121L271 122L270 121M275 121L276 122L275 121M40 122L41 123L40 122M49 122L50 123L49 122M58 122L59 123L58 122M245 122L246 123L245 122M265 122L266 123L265 122M45 123L46 124L45 123M60 123L61 124L60 123M62 123L63 124L62 123M71 123L72 124L71 123M262 123L263 124L262 123M274 123L275 124L274 123M295.333 123.667L295.667 124.333L295.333 123.667M305 123L306 124L305 123M13.3333 124.667L13.6667 125.333L13.3333 124.667M23.3333 124.667L23.6667 125.333L23.3333 124.667M39 124L40 125L39 124M48 124L49 125L48 124M52 124L53 125L52 124M266 124L267 125L266 124M269 124L270 125L269 124M272 124L273 125L272 124M40.6667 125.333L41.3333 125.667L40.6667 125.333M70 125L71 126L70 125M263 125L264 126L263 125M270 125L271 126L270 125M43 126L44 127L43 126M267 126L268 127L267 126M45 127L46 128L45 127M51 127L52 128L51 127M247 127L248 128L247 127M266 127L267 128L266 127M296.333 127.667L296.667 128.333L296.333 127.667M306.333 127.667L306.667 128.333L306.333 127.667M12.3333 128.667L12.6667 129.333L12.3333 128.667M22.3333 128.667L22.6667 129.333L22.3333 128.667M48 128L49 129L48 128M69 128L70 129L69 128M50 129L51 130L50 129M248 130L249 131L248 130M68 131L69 132L68 131M297.333 131.667L297.667 132.333L297.333 131.667M307 131L307 134L308 134L307 131M11 133L11 136L12 136L11 133M21.3333 133.667L21.6667 134.333L21.3333 133.667M249 133L250 134L249 133M67 134L68 135L67 134M298 136L298 139L299 139L298 136M250 137L251 138L250 137M308 137L308 140L309 140L308 137M20 138L20 141L21 141L20 138M66 138L67 139L66 138M10 139L10 142L11 142L10 139M251 141L252 142L251 141z"/>
<path style="fill:#04a1c7; stroke:none;" d="M10 142L11 143L10 142z"/>
<path style="fill:#cb99aa; stroke:none;" d="M65 142L66 143L65 142z"/>
<path style="fill:#04a1c7; stroke:none;" d="M299 142L300 143L299 142z"/>
<path style="fill:#cb99aa; stroke:none;" d="M299 143L299 147L300 147L299 143M309 144L309 149L310 149L309 144z"/>
<path style="fill:#04a1c7; stroke:none;" d="M19 145L20 146L19 145z"/>
<path style="fill:#cb99aa; stroke:none;" d="M19 146L19 151L20 151L19 146M252.333 146.667L252.667 147.333L252.333 146.667M9 148L9 155L10 155L9 148M64.3333 148.667L64.6667 149.333L64.3333 148.667z"/>
<path style="fill:#04a1c7; stroke:none;" d="M300 153L301 154L300 153z"/>
<path style="fill:#cb99aa; stroke:none;" d="M300 154L300 168L301 168L300 154z"/>
<path style="fill:#04a1c7; stroke:none;" d="M9 155L10 156L9 155z"/>
<path style="fill:#cb99aa; stroke:none;" d="M253 157L253 161L254 161L253 157M35.6667 161.333L36.3333 161.667L35.6667 161.333z"/>
<path style="fill:#14268c; stroke:none;" d="M37 161.537C23.3918 164.684 31.258 178.196 42.9954 174.941C54.8363 171.657 47.1518 159.189 37 161.537z"/>
<path style="fill:#04a1c7; stroke:none;" d="M43 161L44 162L43 161z"/>
<path style="fill:#cb99aa; stroke:none;" d="M44 161L45 162L44 161M33 162L34 163L33 162M46 162L47 163L46 162M31 163L32 164L31 163M103 163L103 164L106 164L103 163M113 163L113 164L116 164L113 163M287.667 163.333L288.333 163.667L287.667 163.333z"/>
<path style="fill:#14268c; stroke:none;" d="M289 163L270 167L270 171L289 178L285 174L285 167C287.758 166.549 289.688 166.045 289 163z"/>
<path style="fill:#cb99aa; stroke:none;" d="M290.333 163.667L290.667 164.333L290.333 163.667M30 164L31 165L30 164M37 164L37 165L43 165L37 164z"/>
<path style="fill:#04a1c7; stroke:none;" d="M43 164L44 165L43 164z"/>
<path style="fill:#cb99aa; stroke:none;" d="M95.6667 164.333L96.3333 164.667L95.6667 164.333M122.667 164.333L123.333 164.667L122.667 164.333M282.667 164.333L283.333 164.667L282.667 164.333M29 165L30 166L29 165M34 165L33 167L34 165z"/>
<path style="fill:#fcfcfd; stroke:none;" d="M35.3225 166.027C29.146 170.196 39.8464 173.445 43.6667 170.822C49.6132 166.738 38.9714 163.564 35.3225 166.027z"/>
<path style="fill:#cb99aa; stroke:none;" d="M91 165L92 166L91 165M127 165L128 166L127 165M276 165L276 166L279 166L276 165z"/>
<path style="fill:#04a1c7; stroke:none;" d="M9 166L10 167L9 166z"/>
<path style="fill:#cb99aa; stroke:none;" d="M45 166L46 167L45 166M49.3333 166.667L49.6667 167.333L49.3333 166.667M87 166L88 167L87 166M131 166L132 167L131 166M247 166L248 167L247 166M271 166L271 167L274 167L271 166M289 166L290 167L289 166M9 167L9 174L10 174L9 167M84 167L85 168L84 167M134 167L135 168L134 167M246 167L247 168L246 167M269 167L269 171L270 171L269 167M285 167L285 170L286 170L285 167M32.3333 168.667L32.6667 169.333L32.3333 168.667M81 168L82 169L81 168M278.667 168.333L279.333 168.667L278.667 168.333z"/>
<path style="fill:#fcfcfd; stroke:none;" d="M280 168L276 169L276 170C278.284 170.493 281.169 171.083 280 168z"/>
<path style="fill:#cb99aa; stroke:none;" d="M281 168L280 172L281 168M49.3333 169.667L49.6667 170.333L49.3333 169.667M79 169L80 170L79 169M139 169L140 170L139 169M275 169L276 170L275 169M242 170L243 171L242 170M277 170L278 171L277 170M19 171L19 176L20 176L19 171M29 171L30 172L29 171M43 171L44 172L43 171M64.3333 171.667L64.6667 172.333L64.3333 171.667M272 171L273 172L272 171z"/>
<path style="fill:#04a1c7; stroke:none;" d="M35 172L36 173L35 172z"/>
<path style="fill:#cb99aa; stroke:none;" d="M36 172L36 173L41 173L36 172M274 172L275 173L274 172M30 173L31 174L30 173M71 173L72 174L71 173M147 173L148 174L147 173M238 173L239 174L238 173M277 173L278 174L277 173M285 173L286 174L285 173M309 173L309 178L310 178L309 173M45 174L46 175L45 174M69 174L70 175L69 174M279 174L280 175L279 174M288 174L289 175L288 174M34.6667 175.333L35.3333 175.667L34.6667 175.333z"/>
<path style="fill:#04a1c7; stroke:none;" d="M40 175L41 176L40 175z"/>
<path style="fill:#cb99aa; stroke:none;" d="M41.6667 175.333L42.3333 175.667L41.6667 175.333M281.667 175.333L282.333 175.667L281.667 175.333M299 175L299 179L300 179L299 175M66 176L67 177L66 176M152 176L153 177L152 176M233 176L234 177L233 176M251 176L252 177L251 176M284 176L285 177L284 176M120 177L120 178L128 178L120 177M154 177L155 178L154 177M231 177L232 178L231 177z"/>
<path style="fill:#14268c; stroke:none;" d="M80 214C97.7026 206.112 110.236 193.95 131 193.039C161.045 191.722 187.382 207.819 218 204.155C225.48 203.26 240.73 202.724 245.925 196.49C249.933 191.681 250.843 182.961 252 177C230.931 185.86 214.27 197.149 190 194.83C163.736 192.321 142.228 174.942 115 178.286C103.183 179.738 91.8735 183.852 82 190.52C78.8667 192.636 73.5989 195.801 73.2407 200.001C72.8542 204.533 77.6382 210.419 80 214z"/>
<path style="fill:#cb99aa; stroke:none;" d="M286 177L287 178L286 177M42 178L42 179L47 179L42 178M111 178L111 179L114 179L111 178M133 178L133 179L136 179L133 178M156 178L157 179L156 178M229 178L230 179L229 178M248 178L249 179L248 178M268 178L268 179L271 179L268 178M10 179L10 183L11 183L10 179M38 179L39 180L38 179z"/>
<path style="fill:#14268c; stroke:none;" d="M40 190C30.2717 184.922 50.9997 175.745 47 190C59.406 186.234 41.8682 171.949 33.6073 183.214C30.0606 188.05 36.0955 195.34 40 190z"/>
<path style="fill:#04a1c7; stroke:none;" d="M48 179L49 180L48 179z"/>
<path style="fill:#cb99aa; stroke:none;" d="M106.667 179.333L107.333 179.667L106.667 179.333M139.667 179.333L140.333 179.667L139.667 179.333M158 179L159 180L158 179M227 179L228 180L227 179M247 179L248 180L247 179M251.333 179.667L251.667 180.333L251.333 179.667z"/>
<path style="fill:#14268c; stroke:none;" d="M268 179L280 183L280 184L266 190L286 194C285.027 189.438 278.073 189.428 274 189L274 188C278.909 187.366 286.159 187.253 288 182L268 179z"/>
<path style="fill:#cb99aa; stroke:none;" d="M274.667 179.333L275.333 179.667L274.667 179.333M20 180L20 183L21 183L20 180M36 180L37 181L36 180M50 180L51 181L50 180M102.667 180.333L103.333 180.667L102.667 180.333M143.667 180.333L144.333 180.667L143.667 180.333M245 180L246 181L245 180M279.667 180.333L280.333 180.667L279.667 180.333M34 181L35 182L34 181M51 181L52 182L51 181M99.6667 181.333L100.333 181.667L99.6667 181.333M147 181L148 182L147 181M163 181L164 182L163 181M222 181L223 182L222 181M244 181L245 182L244 181M268 181L268 182L271 182L268 181M284.667 181.333L285.333 181.667L284.667 181.333M33 182L34 183L33 182M39.6667 182.333L40.3333 182.667L39.6667 182.333M47 182L48 183L47 182M97 182L98 183L97 182z"/>
<path style="fill:#04a1c7; stroke:none;" d="M149 182L150 183L149 182z"/>
<path style="fill:#cb99aa; stroke:none;" d="M150 182L151 183L150 182M166 182L167 183L166 182M242 182L243 183L242 182M273 182L273 183L276 183L273 182M308 182L308 185L309 185L308 182z"/>
<path style="fill:#04a1c7; stroke:none;" d="M20 183L21 184L20 183z"/>
<path style="fill:#cb99aa; stroke:none;" d="M32 183L33 184L32 183M37 183L38 184L37 183M48 183L49 184L48 183M52 183L52 187L53 187L52 183M94 183L95 184L94 183M152 183L153 184L152 183M169 183L170 184L169 183M216 183L217 184L216 183M240 183L241 184L240 183M279 183L280 184L279 183M298 183L298 186L299 186L298 183M92 184L93 185L92 184M154 184L155 185L154 184M173 184L174 185L173 184M238 184L239 185L238 184M250 184L251 185L250 184M276 184L276 185L279 185L276 184M35 185L35 188L36 188L35 185M48.3333 185.667L48.6667 186.333L48.3333 185.667M90 185L91 186L90 185M156 185L157 186L156 185M177 185L178 186L177 185M208 185L209 186L208 185M236 185L237 186L236 185M272.667 185.333L273.333 185.667L272.667 185.333M286 185L287 186L286 185M11 186L11 189L12 189L11 186M31.3333 186.667L31.6667 187.333L31.3333 186.667M88 186L89 187L88 186M158 186L159 187L158 186M184.667 186.333L185.333 186.667L184.667 186.333M200 186L200 187L203 187L200 186M234 186L235 187L234 186M268.667 186.333L269.333 186.667L268.667 186.333M282 186L283 187L282 186M21.3333 187.667L21.6667 188.333L21.3333 187.667M47 187L48 188L47 187M86 187L87 188L86 187M161 187L162 188L161 187M232 187L233 188L232 187M249.333 187.667L249.667 188.333L249.333 187.667M266.333 187.667L266.667 188.333L266.333 187.667M277.667 187.333L278.333 187.667L277.667 187.333M46 188L47 189L46 188M85 188L86 189L85 188M163 188L164 189L163 188M229.667 188.333L230.333 188.667L229.667 188.333M274.667 188.333L275.333 188.667L274.667 188.333M297 188L297 191L298 191L297 188M307.333 188.667L307.667 189.333L307.333 188.667M32 189L33 190L32 189M37 189L37 190L40 190L37 189M50 189L51 190L50 189M83 189L84 190L83 189M166 189L167 190L166 189M227 189L228 190L227 189M277 189L277 190L280 190L277 189M47.6667 190.333L48.3333 190.667L47.6667 190.333M169 190L170 191L169 190M224 190L225 191L224 190M267.667 190.333L268.333 190.667L267.667 190.333M282 190L282 191L285 191L282 190M12.3333 191.667L12.6667 192.333L12.3333 191.667M22 191L22 194L23 194L22 191M80 191L81 192L80 191M172.667 191.333L173.333 191.667L172.667 191.333M220.667 191.333L221.333 191.667L220.667 191.333M248 191L249 192L248 191M272.667 191.333L273.333 191.667L272.667 191.333z"/>
<path style="fill:#04a1c7; stroke:none;" d="M274 191L275 192L274 191z"/>
<path style="fill:#cb99aa; stroke:none;" d="M286.333 191.667L286.667 192.333L286.333 191.667M35.6667 192.333L36.3333 192.667L35.6667 192.333z"/>
<path style="fill:#04a1c7; stroke:none;" d="M37 192L38 193L37 192z"/>
<path style="fill:#cb99aa; stroke:none;" d="M39 192L40 193L39 192M53 192L55 194L53 192M79 192L80 193L79 192M176.667 192.333L177.333 192.667L176.667 192.333M216.667 192.333L217.333 192.667L216.667 192.333M277.667 192.333L278.333 192.667L277.667 192.333z"/>
<path style="fill:#04a1c7; stroke:none;" d="M279 192L280 193L279 192z"/>
<path style="fill:#cb99aa; stroke:none;" d="M50.6667 193.333L51.3333 193.667L50.6667 193.333z"/>
<path style="fill:#14268c; stroke:none;" d="M39 210L42 209L39 201L45 199L47 206L49 206L50 205C48.2253 197.387 51.912 197.885 55 204L58 203L54 193C42.2493 195.718 34.7051 197.28 39 210z"/>
<path style="fill:#04a1c7; stroke:none;" d="M126 193L127 194L126 193z"/>
<path style="fill:#cb99aa; stroke:none;" d="M127 193L127 194L132 194L127 193M142 193L142 194L147 194L142 193M180 193L180 194L183 194L180 193M210 193L210 194L213 194L210 193M247.333 193.667L247.667 194.333L247.333 193.667M265 193L266 194L265 193M282.667 193.333L283.333 193.667L282.667 193.333z"/>
<path style="fill:#04a1c7; stroke:none;" d="M284 193L285 194L284 193z"/>
<path style="fill:#cb99aa; stroke:none;" d="M296.333 193.667L296.667 194.333L296.333 193.667M306.333 193.667L306.667 194.333L306.333 193.667M48 194L49 195L48 194M76 194L77 195L76 194M120 194L120 195L123 195L120 194M151 194L151 195L154 195L151 194z"/>
<path style="fill:#04a1c7; stroke:none;" d="M187 194L188 195L187 194z"/>
<path style="fill:#cb99aa; stroke:none;" d="M188 194L188 195L195 195L188 194M198 194L198 195L206 195L198 194z"/>
<path style="fill:#14268c; stroke:none;" d="M265 194C266.145 199.372 279.081 200.752 284 201C280.817 195.948 270.668 194.764 265 194z"/>
<path style="fill:#cb99aa; stroke:none;" d="M268.667 194.333L269.333 194.667L268.667 194.333M45 195L46 196L45 195M75 195L76 196L75 195M116.667 195.333L117.333 195.667L116.667 195.333M156.667 195.333L157.333 195.667L156.667 195.333M264.333 195.667L264.667 196.333L264.333 195.667M272 195L273 196L272 195M13.3333 196.667L13.6667 197.333L13.3333 196.667M23 196L24 197L23 196M42 196L43 197L42 196M55 196L56 197L55 196M74 196L75 197L74 196M112.667 196.333L113.333 196.667L112.667 196.333M160 196L161 197L160 196z"/>
<path style="fill:#04a1c7; stroke:none;" d="M161 196L162 197L161 196z"/>
<path style="fill:#cb99aa; stroke:none;" d="M246 196L247 197L246 196M275.667 196.333L276.333 196.667L275.667 196.333M39.6667 197.333L40.3333 197.667L39.6667 197.333M49 197L50 198L49 197M73 197L74 198L73 197M109.667 197.333L110.333 197.667L109.667 197.333M163 197L164 198L163 197z"/>
<path style="fill:#04a1c7; stroke:none;" d="M164 197L165 198L164 197z"/>
<path style="fill:#cb99aa; stroke:none;" d="M267.667 197.333L268.333 197.667L267.667 197.333M279.667 197.333L280.333 197.667L279.667 197.333M295.333 197.667L295.667 198.333L295.333 197.667M305.333 197.667L305.667 198.333L305.333 197.667M36.6667 198.333L37.3333 198.667L36.6667 198.333M52 198L53 199L52 198M56.3333 198.667L56.6667 199.333L56.3333 198.667M72 198L73 199L72 198M106.667 198.333L107.333 198.667L106.667 198.333M166 198L167 199L166 198M243.667 198.333L244.333 198.667L243.667 198.333M271 198L272 199L271 198M283 198L284 199L283 198M24.3333 199.667L24.6667 200.333L24.3333 199.667M35.3333 199.667L35.6667 200.333L35.3333 199.667M43.6667 199.333L44.3333 199.667L43.6667 199.333M48.3333 199.667L48.6667 200.333L48.3333 199.667M104 199L105 200L104 199M169 199L170 200L169 199M240.667 199.333L241.333 199.667L240.667 199.333M274.667 199.333L275.333 199.667L274.667 199.333M284 199L285 200L284 199M14 200L15 201L14 200M40.6667 200.333L41.3333 200.667L40.6667 200.333z"/>
<path style="fill:#04a1c7; stroke:none;" d="M53 200L54 201L53 200z"/>
<path style="fill:#cb99aa; stroke:none;" d="M72 200L73 201L72 200M102 200L103 201L102 200M172.667 200.333L173.333 200.667L172.667 200.333M237.667 200.333L238.333 200.667L237.667 200.333z"/>
<path style="fill:#14268c; stroke:none;" d="M263 200L270 205L268 211L260 208L259 211L278 218L271 213L273 207L282 209C278.585 203.996 268.761 201.368 263 200z"/>
<path style="fill:#cb99aa; stroke:none;" d="M265 200L266 201L265 200M278.667 200.333L279.333 200.667L278.667 200.333M39 201L40 202L39 201M53 201L54 202L53 201M57 201L58 202L57 201M100 201L101 202L100 201M176 201L177 202L176 201M233.667 201.333L234.333 201.667L233.667 201.333M268 201L269 202L268 201M282.667 201.333L283.333 201.667L282.667 201.333M294 201L295 202L294 201M304.333 201.667L304.667 202.333L304.333 201.667M45 202L46 203L45 202M49 202L50 203L49 202M73 202L74 203L73 202M98 202L99 203L98 202M137 202L137 203L141 203L137 202z"/>
<path style="fill:#14268c; stroke:none;" d="M110 241C123.05 220.136 150.4 210.13 174 216.746C196.001 222.914 223.506 241.098 238 212C224.418 216.343 210.001 217.471 196 214.335C172.075 208.977 154.481 197.603 129 204.746C115.812 208.443 83.1761 223.818 102.998 237.556C105.259 239.123 107.401 240.17 110 241z"/>
<path style="fill:#cb99aa; stroke:none;" d="M157 202L157 203L160 203L157 202M180.667 202.333L181.333 202.667L180.667 202.333M229.667 202.333L230.333 202.667L229.667 202.333M262 202L263 203L262 202M270 202L271 203L270 202M15.3333 203.667L15.6667 204.333L15.3333 203.667M25 203L26 204L25 203M36 203L37 204L36 203M40.3333 203.667L40.6667 204.333L40.3333 203.667M54 203L55 204L54 203M56 203L57 204L56 203M96 203L97 204L96 203M133.667 203.333L134.333 203.667L133.667 203.333M163.667 203.333L164.333 203.667L163.667 203.333M185.667 203.333L186.333 203.667L185.667 203.333z"/>
<path style="fill:#04a1c7; stroke:none;" d="M223 203L224 204L223 203z"/>
<path style="fill:#cb99aa; stroke:none;" d="M224.667 203.333L225.333 203.667L224.667 203.333M264 203L265 204L264 203M272.667 203.333L273.333 203.667L272.667 203.333M46.3333 204.667L46.6667 205.333L46.3333 204.667M74 204L75 205L74 204M94 204L95 205L94 204M129 204L130 205L129 204M167.667 204.333L168.333 204.667L167.667 204.333M191 204L191 205L195 205L191 204z"/>
<path style="fill:#04a1c7; stroke:none;" d="M195 204L196 205L195 204z"/>
<path style="fill:#cb99aa; stroke:none;" d="M215 204L215 205L220 205L215 204M267 204L268 205L267 204M275 204L276 205L275 204M293 204L294 205L293 204M303.333 204.667L303.667 205.333L303.333 204.667M37.3333 205.667L37.6667 206.333L37.3333 205.667M49 205L50 206L49 205M92 205L93 206L92 205M126 205L127 206L126 205M171 205L172 206L171 205M269.333 205.667L269.667 206.333L269.333 205.667M277 205L278 206L277 205M16.3333 206.667L16.6667 207.333L16.3333 206.667M26 206L27 207L26 206M41 206L42 207L41 206M75 206L76 207L75 206M91 206L92 207L91 206M123 206L124 207L123 206M174 206L175 207L174 206M280 206L281 207L280 206M89 207L90 208L89 207M121 207L122 208L121 207M176 207L177 208L176 207M274 207L275 208L274 207M292 207L293 208L292 207M38.3333 208.667L38.6667 209.333L38.3333 208.667M76 208L77 209L76 208M88 208L89 209L88 208M118 208L119 209L118 208M178 208L179 209L178 208M261 208L262 209L261 208M268 208L269 209L268 208M272 208L273 209L272 208M276 208L277 209L276 208M302 208L303 209L302 208M17.3333 209.667L17.6667 210.333L17.3333 209.667M27 209L28 210L27 209M40.6667 209.333L41.3333 209.667L40.6667 209.333M59 209L59 210L62 210L59 209M116 209L117 210L116 209M181 209L182 210L181 209M259 209L260 210L259 209M263.667 209.333L264.333 209.667L263.667 209.333M279 209L280 210L279 209M281 209L282 210L281 209M55.6667 210.333L56.3333 210.667L55.6667 210.333z"/>
<path style="fill:#14268c; stroke:none;" d="M41 214L42 217C49.7446 216.125 47.9247 221.363 48 227C53.7917 222.92 60.0946 216.995 62 210L41 214z"/>
<path style="fill:#cb99aa; stroke:none;" d="M85 210L86 211L85 210M183 210L184 211L183 210M266.667 210.333L267.333 210.667L266.667 210.333M271 210L272 211L271 210M291 210L292 211L291 210M301.333 210.667L301.667 211.333L301.333 210.667M28 211L29 212L28 211M51.6667 211.333L52.3333 211.667L51.6667 211.333M62.3333 211.667L62.6667 212.333L62.3333 211.667M78 211L79 212L78 211M84 211L85 212L84 211M113 211L114 212L113 211M186 211L187 212L186 211M260 211L261 212L260 211M18.3333 212.667L18.6667 213.333L18.3333 212.667M47 212L48 213L47 212M111 212L112 213L111 212M189 212L190 213L189 212M236 212L237 213L236 212M262 212L263 213L262 212z"/>
<path style="fill:#04a1c7; stroke:none;" d="M263 212L264 213L263 212z"/>
<path style="fill:#cb99aa; stroke:none;" d="M271 212L272 213L271 212M290 212L291 213L290 212M42.6667 213.333L43.3333 213.667L42.6667 213.333M55 213L53 218L57 213L55 213M61 213L62 214L61 213M192.667 213.333L193.333 213.667L192.667 213.333M232.667 213.333L233.333 213.667L232.667 213.333M237 213L238 214L237 213M265 213L266 214L265 213M273 213L274 214L273 213M300.333 213.667L300.667 214.333L300.333 213.667M29 214L30 215L29 214M51.6667 214.333L52.3333 214.667L51.6667 214.333z"/>
<path style="fill:#fcfcfd; stroke:none;" d="M51 215L52 218L56 214L51 215z"/>
<path style="fill:#cb99aa; stroke:none;" d="M60 214L61 215L60 214M80 214L81 215L80 214M108 214L109 215L108 214M196.667 214.333L197.333 214.667L196.667 214.333M227 214L227 215L230 215L227 214M267 214L268 215L267 214M276 214L277 215L276 214M19 215L20 216L19 215M41 215L42 216L41 215M59 215L60 216L59 215M148 215L148 216L151 216L148 215M166 215L166 216L169 216L166 215M202 215L202 216L206 216L202 215M220 215L220 216L224 216L220 215M257 215L257 216L262 218C262.488 215.041 259.484 215.118 257 215M270 215L271 216L270 215M278.333 215.667L278.667 216.333L278.333 215.667M289 215L290 216L289 215M30 216L31 217L30 216M44.6667 216.333L45.3333 216.667L44.6667 216.333M47 216L48 217L47 216M51 216L52 217L51 216M58 216L59 217L58 216M105 216L106 217L105 216M144.667 216.333L145.333 216.667L144.667 216.333M172.667 216.333L173.333 216.667L172.667 216.333M235 216L236 217L235 216M255 216L254 218L255 216z"/>
<path style="fill:#14268c; stroke:none;" d="M267 222C271.838 235.723 248.851 220.877 262 219L262 216C249.27 216.415 254.371 229.676 264 231.59C271.858 233.152 275.068 222.372 267 222z"/>
<path style="fill:#cb99aa; stroke:none;" d="M272 216L273 217L272 216M299 216L300 217L299 216z"/>
<path style="fill:#04a1c7; stroke:none;" d="M20 217L21 218L20 217z"/>
<path style="fill:#cb99aa; stroke:none;" d="M104 217L105 218L104 217M140.667 217.333L141.333 217.667L140.667 217.333M176 217L177 218L176 217M234 217L235 218L234 217M275 217L276 218L275 217M288 217L289 218L288 217M20 218L21 219L20 218M31 218L32 219L31 218M48 218L49 219L48 218M103 218L104 219L103 218M137.667 218.333L138.333 218.667L137.667 218.333M179 218L180 219L179 218M277 218L278 219L277 218M298 218L299 219L298 218z"/>
<path style="fill:#14268c; stroke:none;" d="M52 233L63 226L57 239L58 240C63.0648 237.743 73.1033 232.038 73 226L63 233L68 219C62.1873 221.46 53.9073 226.76 52 233z"/>
<path style="fill:#cb99aa; stroke:none;" d="M135 219L136 220L135 219M181 219L182 220L181 219M253 219L254 220L253 219z"/>
<path style="fill:#04a1c7; stroke:none;" d="M257 219L258 220L257 219z"/>
<path style="fill:#cb99aa; stroke:none;" d="M287 219L288 220L287 219M21 220L22 221L21 220M49.3333 220.667L49.6667 221.333L49.3333 220.667M64 220L65 221L64 220M68 220L69 221L68 220M133 220L134 221L133 220M184 220L185 221L184 220M232 220L233 221L232 220z"/>
<path style="fill:#04a1c7; stroke:none;" d="M253 220L254 221L253 220z"/>
<path style="fill:#cb99aa; stroke:none;" d="M32 221L33 222L32 221M63 221L64 222L63 221z"/>
<path style="fill:#04a1c7; stroke:none;" d="M68 221L69 222L68 221z"/>
<path style="fill:#cb99aa; stroke:none;" d="M131 221L132 222L131 221M186 221L187 222L186 221M231 221L232 222L231 221z"/>
<path style="fill:#04a1c7; stroke:none;" d="M256 221L257 222L256 221z"/>
<path style="fill:#cb99aa; stroke:none;" d="M268 221L269 222L268 221M270 221L271 222L270 221M286 221L287 222L286 221M297 221L298 222L297 221M22 222L23 223L22 222M48 222L49 223L48 222M129 222L130 223L129 222M187 222L188 223L187 222M230 222L231 223L230 222M253.333 222.667L253.667 223.333L253.333 222.667M271 222L272 223L271 222M33 223L34 224L33 223M47 223L48 224L47 223M60 223L61 224L60 223M67 223L68 224L67 223M127 223L128 224L127 223M189 223L190 224L189 223M257 223L258 224L257 223M285 223L286 224L285 223M296 223L297 224L296 223M23 224L24 225L23 224M59 224L60 225L59 224M158 224L158 225L161 225L158 224z"/>
<path style="fill:#14268c; stroke:none;" d="M123 249C153.548 256.067 197.609 261.19 220 232C203.817 236.187 193.265 229.102 178 225.665C162.73 222.227 146.336 225.319 134.015 235.286C129.393 239.025 124.934 243.3 123 249z"/>
<path style="fill:#cb99aa; stroke:none;" d="M171 224L171 225L174 225L171 224M191 224L192 225L191 224M268 224L269 225L268 224M272.333 224.667L272.667 225.333L272.333 224.667M34 225L35 226L34 225M47 225L48 226L47 225M50 225L51 226L50 225M58 225L59 226L58 225M66 225L67 226L66 225M124 225L125 226L124 225M153.667 225.333L154.333 225.667L153.667 225.333M177.667 225.333L178.333 225.667L177.667 225.333M194 225L195 226L194 225M227 225L228 226L227 225M254 225L255 226L254 225M284 225L285 226L284 225M295 225L296 226L295 225M24 226L25 227L24 226M49 226L50 227L49 226M61 229L62 229L63 227L61 229z"/>
<path style="fill:#04a1c7; stroke:none;" d="M95 226L96 227L95 226z"/>
<path style="fill:#cb99aa; stroke:none;" d="M123 226L124 227L123 226M150 226L151 227L150 226M181 226L182 227L181 226M197 226L198 227L197 226M224.667 226.333L225.333 226.667L224.667 226.333M255 226L256 227L255 226M260 226L261 227L260 226z"/>
<path style="fill:#04a1c7; stroke:none;" d="M272 226L273 227L272 226z"/>
<path style="fill:#cb99aa; stroke:none;" d="M55 227L56 228L55 227z"/>
<path style="fill:#fcfcfd; stroke:none;" d="M61 227L62 228L61 227z"/>
<path style="fill:#cb99aa; stroke:none;" d="M65 227L66 228L65 227M70 227L71 228L70 227M94 227L95 228L94 227M147 227L148 228L147 227M184 227L185 228L184 227M200.667 227.333L201.333 227.667L200.667 227.333M220.667 227.333L221.333 227.667L220.667 227.333M256 227L257 228L256 227M268 227L269 228L268 227M272.333 227.667L272.667 228.333L272.333 227.667M283 227L284 228L283 227M294 227L295 228L294 227M25 228L26 229L25 228M36 228L37 229L36 228M54 228L55 229L54 228M59 228L60 229L59 228M69 228L70 229L69 228M93.3333 228.667L93.6667 229.333L93.3333 228.667M120 228L121 229L120 228M145 228L146 229L145 228M186.667 228.333L187.333 228.667L186.667 228.333M206 228L206 229L217 229L206 228M257 228L258 229L257 228M263.667 228.333L264.333 228.667L263.667 228.333M267 228L268 229L267 228M64 229L65 230L64 229M72 229L73 230L72 229M119 229L120 230L119 229M142 229L143 230L142 229M189 229L190 230L189 229M282 229L283 230L282 229M293 229L294 230L293 229M26 230L27 231L26 230M37 230L38 231L37 230M51.3333 230.667L51.6667 231.333L51.3333 230.667M56 230L57 231L56 230M60 230L61 231L60 230M66 230L67 231L66 230M71 230L72 231L71 230M94 230L95 231L94 230M118 230L119 231L118 230M191 230L192 231L191 230M260 230L261 231L260 230M55 231L56 232L55 231M63 231L64 232L63 231M65 231L66 232L65 231M70 231L71 232L70 231M95 231L96 232L95 231M117 231L118 232L117 231M139 231L140 232L139 231M194 231L195 232L194 231M262 231L263 232L262 231M269 231L270 232L269 231M281 231L282 232L281 231M292 231L293 232L292 231M27 232L28 233L27 232M38 232L39 233L38 232M59 232L60 233L59 232z"/>
<path style="fill:#fcfcfd; stroke:none;" d="M63 232L64 233L63 232z"/>
<path style="fill:#cb99aa; stroke:none;" d="M96 232L97 233L96 232M116 232L117 233L116 232M137 232L138 233L137 232M197.667 232.333L198.333 232.667L197.667 232.333M217.667 232.333L218.333 232.667L217.667 232.333M220 232L221 233L220 232M62 233L63 234L62 233M67 233L68 234L67 233M97 233L98 234L97 233M115 233L116 234L115 233M136 233L137 234L136 233M203 233L203 234L214 234L203 233M219 233L220 234L219 233M291 233L292 234L291 233M28 234L29 235L28 234M58 234L59 235L58 234M66 234L67 235L66 234M114 234L115 235L114 234M218 234L219 235L218 234M279 234L280 235L279 234M40 235L41 236L40 235M100 235L101 236L100 235M113 235L114 236L113 235M133 235L134 236L133 235M290 235L291 236L290 235M29 236L30 237L29 236M57 236L58 237L57 236M63 236L64 237L63 236M101 236L102 237L101 236M132 236L133 237L132 236M215 236L216 237L215 236M239 236L237 239L239 236z"/>
<path style="fill:#14268c; stroke:none;" d="M240 236L233 242L233 243L247 257L243 248L247 246L247 244L246 243C237.341 245.752 242.583 240.708 240 236z"/>
<path style="fill:#cb99aa; stroke:none;" d="M241 236L242 237L241 236M278 236L279 237L278 236M289 236L290 237L289 236M30 237L31 238L30 237M41 237L42 238L41 237M62 237L63 238L62 237M131 237L132 238L131 237M214 237L215 238L214 237M242.333 237.667L242.667 238.333L242.333 237.667M277 237L278 238L277 237M42 238L43 239L42 238M61 238L62 239L61 238M104 238L105 239L104 238z"/>
<path style="fill:#04a1c7; stroke:none;" d="M130 238L131 239L130 238z"/>
<path style="fill:#cb99aa; stroke:none;" d="M288 238L289 239L288 238M31 239L32 240L31 239M57 239L58 240L57 239M105 239L106 240L105 239M110 239L111 240L110 239M211 239L212 240L211 239M241 239L242 240L241 239M276 239L277 240L276 239M43 240L44 241L43 240M58 240L59 241L58 240M85 240L84 242L85 240z"/>
<path style="fill:#14268c; stroke:none;" d="M86 240C83.7465 242.588 81.4875 245.201 79.4938 248C68.2909 263.727 93.4239 261.961 94 246C92.2688 247.274 90.8595 248.464 89.3997 250.059C88.5303 251.009 87.7563 252.064 86.8302 252.962C75.4498 263.995 87.2823 242.33 86 240z"/>
<path style="fill:#cb99aa; stroke:none;" d="M107 240L108 241L107 240z"/>
<path style="fill:#04a1c7; stroke:none;" d="M128 240L129 241L128 240z"/>
<path style="fill:#cb99aa; stroke:none;" d="M240 240L241 241L240 240M275 240L276 241L275 240M287 240L288 241L287 240M32 241L33 242L32 241M44 241L45 242L44 241M108 241L109 242L108 241M127 241L128 242L127 241M208 241L209 242L208 241M286 241L287 242L286 241M33 242L34 243L33 242M126 242L127 243L126 242M206 242L207 243L206 242M245 242L246 243L245 242M125 243L126 244L125 243M233 243L234 244L233 243M246 243L247 244L246 243M273 243L274 244L273 243M285 243L286 244L285 243M34 244L35 245L34 244M46 244L47 245L46 244M82 244L83 245L82 244M86 244L87 245L86 244M203 244L204 245L203 244M234 244L235 245L234 244M242 244L243 245L242 244M247 244L248 245L247 244M284 244L285 245L284 244M35 245L36 246L35 245M47 245L48 246L47 245M81 245L82 246L81 245M85 245L86 246L85 245M201 245L202 246L201 245M235 245L236 246L235 245M241 245L242 246L241 245M80 246L81 247L80 246z"/>
<path style="fill:#04a1c7; stroke:none;" d="M92 246L93 247L92 246z"/>
<path style="fill:#cb99aa; stroke:none;" d="M94 246L95 247L94 246M123 246L124 247L123 246M199 246L200 247L199 246M236 246L237 247L236 246M271 246L272 247L271 246M283 246L284 247L283 246M91 247L92 248L91 247M95 247L96 248L95 247M122.333 247.667L122.667 248.333L122.333 247.667M197 247L198 248L197 247M225 247L226 248L225 247z"/>
<path style="fill:#14268c; stroke:none;" d="M226.109 247.785C216.492 251.298 225.97 268.907 234.891 265.392C244.292 261.688 234.619 244.677 226.109 247.785z"/>
<path style="fill:#cb99aa; stroke:none;" d="M230 247L231 248L230 247M237 247L238 248L237 247M244 247L245 248L244 247M270 247L271 248L270 247M282 247L283 248L282 247M37 248L38 249L37 248M49 248L50 249L49 248M83 248L84 249L83 248M90 248L91 249L90 248M94 248L95 249L94 248M194 248L195 249L194 248M232 248L233 249L232 248M243.333 248.667L243.667 249.333L243.333 248.667M269 248L270 249L269 248M50 249L51 250L50 249M78 249L79 250L78 249M82 249L83 250L82 249M98 249L97 251L98 249M124.667 249.333L125.333 249.667L124.667 249.333M192 249L193 250L192 249M51 250L52 251L51 250M77 250L78 251L77 250M81 250L82 251L81 250z"/>
<path style="fill:#14268c; stroke:none;" d="M98 250L88 267L91 268L96 258L97 258L96 272C102.031 270.119 107.708 260.146 107 254L100 265L99 265L101 251L100 250L98 250z"/>
<path style="fill:#cb99aa; stroke:none;" d="M100 250L101 251L100 250M127 250L128 251L127 250z"/>
<path style="fill:#04a1c7; stroke:none;" d="M128 250L129 251L128 250z"/>
<path style="fill:#cb99aa; stroke:none;" d="M189 250L190 251L189 250M222 250L223 251L222 250M227 250L227 251L230 251L227 250M280 250L281 251L280 250M39 251L40 252L39 251M88 251L89 252L88 251M92 251L93 252L92 251M130.667 251.333L131.333 251.667L130.667 251.333M186 251L187 252L186 251z"/>
<path style="fill:#fcfcfd; stroke:none;" d="M226.782 252.047C223.114 255.007 229.268 264.171 233.4 261.688C238.013 258.914 231.259 248.435 226.782 252.047z"/>
<path style="fill:#04a1c7; stroke:none;" d="M231 251L232 252L231 251M235 251L236 252L235 251z"/>
<path style="fill:#cb99aa; stroke:none;" d="M279 251L280 252L279 251M40 252L41 253L40 252M76 252L77 253L76 252M87 252L88 253L87 252M91 252L92 253L91 252M96 252L97 253L96 252M134 252L135 253L134 252M182.667 252.333L183.333 252.667L182.667 252.333M221 252L221 255L222 255L221 252M225 252L226 253L225 252M232 252L233 253L232 252M236 252L237 253L236 252M241 252L242 253L241 252M266 252L267 253L266 252M79 253L79 256L80 256L79 253M86 253L87 254L86 253z"/>
<path style="fill:#04a1c7; stroke:none;" d="M100 253L101 254L100 253z"/>
<path style="fill:#cb99aa; stroke:none;" d="M138.667 253.333L139.333 253.667L138.667 253.333z"/>
<path style="fill:#04a1c7; stroke:none;" d="M177 253L178 254L177 253z"/>
<path style="fill:#cb99aa; stroke:none;" d="M178.667 253.333L179.333 253.667L178.667 253.333M242 253L243 254L242 253M265 253L266 254L265 253M54 254L55 255L54 254M75.3333 254.667L75.6667 255.333L75.3333 254.667M95 254L96 255L95 254M100 254L100 258L101 258L100 254M143 254L143 255L146 255L143 254M172 254L172 255L175 255L172 254M237 254L238 255L237 254M243 254L244 255L243 254M264 254L265 255L264 254M277 254L278 255L277 254M55 255L56 256L55 255M94 255L95 256L94 255M105 255L106 256L105 255M108 255L109 256L108 255M150 255L150 256L167 256L150 255M225.333 255.667L225.667 256.333L225.333 255.667M234 255L235 256L234 255M244 255L245 256L244 255M248 255L249 256L248 255M263 255L264 256L263 255M276 255L277 256L276 255M43 256L44 257L43 256M56 256L57 257L56 256M88 256L89 257L88 256M104 256L105 257L104 256M238 256L239 257L238 256M245 256L246 257L245 256M247 256L248 257L247 256M275 256L276 257L275 256M44 257L45 258L44 257M57 257L58 258L57 257M81.6667 257.333L82.3333 257.667L81.6667 257.333M87 257L88 258L87 257M93 257L94 258L93 257M107 257L108 258L107 257M111 257L112 258L111 257z"/>
<path style="fill:#14268c; stroke:none;" d="M112 257L104 276C108.686 273.34 115.048 261.979 112 257z"/>
<path style="fill:#cb99aa; stroke:none;" d="M113 257L114 258L113 257M222 257L223 258L222 257M235 257L235 261L236 261L235 257M246 257L247 258L246 257M45 258L46 259L45 258M58 258L59 259L58 258M76 258L77 259L76 258M86 258L87 259L86 258M96 258L97 259L96 258M103 258L104 259L103 258M114 258L115 259L114 258M226 258L227 259L226 258M59 259L60 260L59 259M77 259L78 260L77 259M85 259L86 260L85 259M92 259L93 260L92 259M106 259L107 260L106 259M110 259L111 260L110 259M116.667 259.333L117.333 259.667L116.667 259.333M204.667 259.333L205.333 259.667L204.667 259.333M223 259L224 260L223 259M227 259L228 260L227 259M60 260L61 261L60 260M84 260L85 261L84 260M91 260L92 261L91 260M102 260L103 261L102 260M113 260L114 261L113 260z"/>
<path style="fill:#14268c; stroke:none;" d="M116 260L116 281L118 281L129 264L126 263L119 275L118 275L119 260L116 260z"/>
<path style="fill:#cb99aa; stroke:none;" d="M202 260L202 265L203 265L202 260z"/>
<path style="fill:#14268c; stroke:none;" d="M203 260L202 269L201 269C199.159 265.189 197.292 263.638 193 264L206 281L206 260L203 260z"/>
<path style="fill:#cb99aa; stroke:none;" d="M61 261L62 262L61 261M81.6667 261.333L82.3333 261.667L81.6667 261.333M94 261L95 262L94 261M96 261L96 266L97 266L96 261M101 261L102 262L101 261M109 261L110 262L109 261M119 261L120 262L119 261z"/>
<path style="fill:#04a1c7; stroke:none;" d="M205 261L206 262L205 261z"/>
<path style="fill:#cb99aa; stroke:none;" d="M229 261L230 262L229 261M271 261L272 262L271 261M62 262L63 263L62 262M90 262L91 263L90 262z"/>
<path style="fill:#04a1c7; stroke:none;" d="M99 262L100 263L99 262z"/>
<path style="fill:#cb99aa; stroke:none;" d="M104 262L105 263L104 262M112 262L113 263L112 262M205 262L205 267L206 267L205 262M225 262L226 263L225 262M230 262L231 263L230 262M233 262L234 263L233 262z"/>
<path style="fill:#04a1c7; stroke:none;" d="M238 262L239 263L238 262z"/>
<path style="fill:#cb99aa; stroke:none;" d="M270 262L271 263L270 262M63 263L64 264L63 263M93 263L94 264L93 263M99 263L99 265L101 263L99 263M108 263L109 264L108 263M127.667 263.333L128.333 263.667L127.667 263.333M193.667 263.333L194.333 263.667L193.667 263.333M226 263L227 264L226 263M269 263L270 264L269 263M50 264L51 265L50 264M64 264L65 265L64 264M89 264L90 265L89 264M103 264L104 265L103 264M111 264L112 265L111 264M115 264L115 269L116 269L115 264M131 264L132 265L131 264M189 264L189 265L192 268L193 268L189 264M227 264L228 265L227 264M237 264L238 265L237 264M254 264L255 265L254 264M268 264L269 265L268 264M51 265L52 266L51 265M65 265L66 266L65 265M88 265L89 266L88 265M107 265L108 266L107 265M124 265L125 266L124 265M128 265L129 266L128 265z"/>
<path style="fill:#14268c; stroke:none;" d="M131 265L127 284L138 286L138 283L131 282L132 276L139 278L140 275L132 273L133 269C136.702 269.279 139.757 270.361 142 267L131 265z"/>
<path style="fill:#cb99aa; stroke:none;" d="M135.667 265.333L136.333 265.667L135.667 265.333M185.667 265.333L186.333 265.667L185.667 265.333z"/>
<path style="fill:#14268c; stroke:none;" d="M181 270L185 269C186.427 273.469 187.063 283.948 192 285L188 269L192 265C187.551 265.194 182.637 265.329 181 270z"/>
<path style="fill:#cb99aa; stroke:none;" d="M253 265L254 266L253 265M267 265L268 266L267 265M52 266L53 267L52 266M91 266L92 267L91 266z"/>
<path style="fill:#04a1c7; stroke:none;" d="M110 266L111 267L110 266z"/>
<path style="fill:#cb99aa; stroke:none;" d="M118 266L118 271L119 271L118 266M130.333 266.667L130.667 267.333L130.333 266.667M139.667 266.333L140.333 266.667L139.667 266.333M181.667 266.333L182.333 266.667L181.667 266.333M231 266L231 267L234 267L231 266M252 266L253 267L252 266M266 266L267 267L266 266M53 267L54 268L53 267M89 267L90 268L89 267M101 267L102 268L101 267M106.333 267.667L106.667 268.333L106.333 267.667M110 267L111 268L110 267M145.667 267.333L146.333 267.667L145.667 267.333M175 267L175 268L178 268L175 267M180.333 267.667L180.667 268.333L180.333 267.667M251 267L252 268L251 267M265 267L266 268L265 267M54 268L55 269L54 268M122 268L123 269L122 268M126 268L127 269L126 268z"/>
<path style="fill:#04a1c7; stroke:none;" d="M130 268L131 269L130 268z"/>
<path style="fill:#14268c; stroke:none;" d="M145 268C144.985 273.331 141.334 284.602 146 288L147 280L156 289L153 279C162.951 273.186 151.276 268.053 145 268z"/>
<path style="fill:#cb99aa; stroke:none;" d="M152.667 268.333L153.333 268.667L152.667 268.333M164.667 268.333L165.333 268.667L164.667 268.333z"/>
<path style="fill:#14268c; stroke:none;" d="M163 282L162 282C160.987 292.675 176.163 288.223 171.806 280.133C170.062 276.897 165.568 275.581 163 273L172 274C169.921 269.06 161.296 266.124 161.296 274.003C161.296 279.204 167.155 278.551 168.654 282.305C170.426 286.742 163.886 282.924 163 282z"/>
<path style="fill:#cb99aa; stroke:none;" d="M167.667 268.333L168.333 268.667L167.667 268.333z"/>
<path style="fill:#14268c; stroke:none;" d="M175 268C175.622 273.241 175.219 285.309 181 287L178 268L175 268z"/>
<path style="fill:#cb99aa; stroke:none;" d="M189 268L190 269L189 268M201 268L202 269L201 268M264 268L265 269L264 268M55 269L56 270L55 269M70 269L71 270L70 269M100 269L101 270L100 269M109 269L110 270L109 269M125 269L126 270L125 269M133 269L134 270L133 269M136.667 269.333L137.333 269.667L136.667 269.333M141 269L142 270L141 269M155 269L156 270L155 269M162 269L163 270L162 269M184 269L185 270L184 269M188 269L189 270L188 269z"/>
<path style="fill:#04a1c7; stroke:none;" d="M198 269L199 270L198 269z"/>
<path style="fill:#cb99aa; stroke:none;" d="M263 269L264 270L263 269M71 270L72 271L71 270M95 270L96 271L95 270M105 270L106 271L105 270M140 270L141 271L140 270M156 270L157 271L156 270M161 270L162 271L161 270M178 270L178 273L179 273L178 270M181 270L182 271L181 270M185 270L186 271L185 270M199 270L200 271L199 270M247 270L248 271L247 270M262 270L263 271L262 270M108 271L109 272L108 271M120 271L121 272L120 271M124 271L125 272L124 271M129.333 271.667L129.667 272.333L129.333 271.667M148 271L148 272L151 272L148 271M171.333 271.667L171.667 272.333L171.333 271.667M175 271L175 274L176 274L175 271M200 271L201 272L200 271M246 271L247 272L246 271M261 271L262 272L261 271M97.6667 272.333L98.3333 272.667L97.6667 272.333M104 272L105 273L104 272M123 272L124 273L123 272M132 272L133 273L132 272M144 272L144 276L145 276L144 272z"/>
<path style="fill:#fcfcfd; stroke:none;" d="M148 272L148 276L153 276L153 272L148 272z"/>
<path style="fill:#cb99aa; stroke:none;" d="M160 272L160 276L161 276L160 272M189.333 272.667L189.667 273.333L189.333 272.667M201 272L202 273L201 272M245 272L246 273L245 272M260 272L261 273L260 272M75 273L76 274L75 273M107 273L108 274L107 273M134.667 273.333L135.333 273.667L134.667 273.333z"/>
<path style="fill:#04a1c7; stroke:none;" d="M147 273L148 274L147 273z"/>
<path style="fill:#cb99aa; stroke:none;" d="M153 273L153 276L154 276L153 273M163 273L164 274L163 273M168 273L169 274L168 273M186.333 273.667L186.667 274.333L186.333 273.667M205 273L206 274L205 273M61 274L62 275L61 274M103.333 274.667L103.667 275.333L103.333 274.667M118 274L119 275L118 274M139 274L140 275L139 274M147.333 274.667L147.667 275.333L147.333 274.667M169.667 274.333L170.333 274.667L169.667 274.333M202 274L203 275L202 274M242 274L243 275L242 274M62 275L63 276L62 275M78 275L79 276L78 275M106 275L107 276L106 275M114 275L114 280L115 280L114 275M121 275L122 276L121 275M128.333 275.667L128.667 276.333L128.333 275.667z"/>
<path style="fill:#04a1c7; stroke:none;" d="M164 275L165 276L164 275z"/>
<path style="fill:#cb99aa; stroke:none;" d="M63 276L64 277L63 276M79 276L80 277L79 276M105 276L106 277L105 276M120 276L121 277L120 276M132 276L133 277L132 276z"/>
<path style="fill:#04a1c7; stroke:none;" d="M133 276L134 277L133 276z"/>
<path style="fill:#cb99aa; stroke:none;" d="M139 276L140 277L139 276z"/>
<path style="fill:#04a1c7; stroke:none;" d="M144 276L145 277L144 276z"/>
<path style="fill:#cb99aa; stroke:none;" d="M148 276L148 277L153 277L148 276M156 276L157 277L156 276M167.667 276.333L168.333 276.667L167.667 276.333M179 276L179 279L180 279L179 276M190.333 276.667L190.667 277.333L190.333 276.667M206 276L207 277L206 276M239 276L240 277L239 276M255 276L256 277L255 276M81 277L82 278L81 277M131 277L132 278L131 277M136.667 277.333L137.333 277.667L136.667 277.333M161 277L162 278L161 277M170 277L171 278L170 277M187.333 277.667L187.667 278.333L187.333 277.667M203 277L204 278L203 277M238 277L239 278L238 277M254 277L255 278L254 277M82 278L83 279L82 278M119 278L120 279L119 278M155 278L156 279L155 278M162 278L163 279L162 278M171 278L172 279L171 278M176 278L176 281L177 281L176 278M207.333 278.667L207.667 279.333L207.333 278.667M236 278L237 279L236 278M253 278L254 279L253 278M67 279L68 280L67 279M84 279L85 280L84 279M118 279L119 280L118 279M127.333 279.667L127.667 280.333L127.333 279.667M153 279L154 280L153 279M164 279L165 280L164 279z"/>
<path style="fill:#04a1c7; stroke:none;" d="M204 279L205 280L204 279z"/>
<path style="fill:#cb99aa; stroke:none;" d="M235 279L236 280L235 279M68 280L69 281L68 280M85 280L86 281L85 280M115 280L116 281L115 280M149 280L150 281L149 280M166.667 280.333L167.333 280.667L166.667 280.333M172 280L173 281L172 280M191.333 280.667L191.667 281.333L191.333 280.667M204 280L205 281L204 280M206 280L207 281L206 280M233 280L234 281L233 280M250 280L251 281L250 280M87 281L88 282L87 281z"/>
<path style="fill:#04a1c7; stroke:none;" d="M127 281L128 282L127 281z"/>
<path style="fill:#cb99aa; stroke:none;" d="M143 281L143 286L144 286L143 281M169 281L170 282L169 281M188.333 281.667L188.667 282.333L188.333 281.667M249 281L250 282L249 281M71 282L72 283L71 282M89 282L90 283L89 282M134.667 282.333L135.333 282.667L134.667 282.333M150 282L151 283L150 282M154 282L155 283L154 282M161 282L162 283L161 282M163 282L164 283L163 282M230 282L231 283L230 282M72 283L73 284L72 283M90 283L91 284L90 283M138.333 283.667L138.667 284.333L138.333 283.667M146 283L146 288L147 288L146 283M160 283L161 284L160 283M169 283L170 284L169 283M180 283L180 286L181 286L180 283M228 283L229 284L228 283M246 283L247 284L246 283M74 284L75 285L74 284M92 284L93 285L92 284M127.667 284.333L128.333 284.667L127.667 284.333M151.333 284.667L151.667 285.333L151.333 284.667M164 284L165 285L164 284z"/>
<path style="fill:#04a1c7; stroke:none;" d="M169 284L170 285L169 284z"/>
<path style="fill:#cb99aa; stroke:none;" d="M177 284L177 287L178 287L177 284M226 284L227 285L226 284M245 284L246 285L245 284M75 285L76 286L75 285M94 285L95 286L94 285M131.667 285.333L132.333 285.667L131.667 285.333M155 285L156 286L155 285z"/>
<path style="fill:#04a1c7; stroke:none;" d="M161 285L162 286L161 285z"/>
<path style="fill:#cb99aa; stroke:none;" d="M165 285L165 286L168 286L165 285M172 285L173 286L172 285M189.667 285.333L190.333 285.667L189.667 285.333M224 285L225 286L224 285M243 285L244 286L243 285M77 286L78 287L77 286M96 286L97 287L96 286M136.667 286.333L137.333 286.667L136.667 286.333M222 286L223 287L222 286M242 286L243 287L242 286M78 287L79 288L78 287M98 287L99 288L98 287M143 287L144 288L143 287M152 287L153 288L152 287M162 287L163 288L162 287M171 287L172 288L171 287M178 287L178 288L181 288L178 287M220 287L221 288L220 287M240 287L241 288L240 287M80 288L81 289L80 288M100 288L101 289L100 288M156 288L157 289L156 288M163 288L164 289L163 288M169 288L170 289L169 288M218 288L219 289L218 288M102 289L103 290L102 289M216 289L217 290L216 289M237 289L238 290L237 289M83 290L84 291L83 290M105 290L106 291L105 290M214 290L215 291L214 290M235 290L236 291L235 290M85 291L86 292L85 291M107 291L108 292L107 291M211 291L212 292L211 291M87 292L88 293L87 292M110 292L111 293L110 292M209 292L210 293L209 292M232 292L233 293L232 292M88 293L89 294L88 293M112.667 293.333L113.333 293.667L112.667 293.333M206 293L207 294L206 293M230 293L231 294L230 293M90 294L91 295L90 294M115.667 294.333L116.333 294.667L115.667 294.333M203 294L204 295L203 294M228 294L229 295L228 294M92 295L93 296L92 295M118.667 295.333L119.333 295.667L118.667 295.333M200 295L201 296L200 295M226 295L227 296L226 295M94 296L95 297L94 296M122 296L123 297L122 296M196.667 296.333L197.333 296.667L196.667 296.333M224 296L225 297L224 296M96 297L97 298L96 297z"/>
<path style="fill:#04a1c7; stroke:none;" d="M97 297L98 298L97 297z"/>
<path style="fill:#cb99aa; stroke:none;" d="M125.667 297.333L126.333 297.667L125.667 297.333M192.667 297.333L193.333 297.667L192.667 297.333M222 297L223 298L222 297M99 298L100 299L99 298M130.667 298.333L131.333 298.667L130.667 298.333M187 298L187 299L190 299L187 298M220 298L221 299L220 298M101 299L102 300L101 299M135 299L135 300L138 300L135 299M182 299L182 300L185 300L182 299M217 299L218 300L217 299M103.667 300.333L104.333 300.667L103.667 300.333M141 300L141 301L145 301L141 300M174 300L174 301L178 301L174 300M215 300L216 301L215 300M106 301L107 302L106 301M152 301L152 302L167 302L152 301M212 301L213 302L212 301M109 302L110 303L109 302M209.667 302.333L210.333 302.667L209.667 302.333M111.667 303.333L112.333 303.667L111.667 303.333M207 303L208 304L207 303M114.667 304.333L115.333 304.667L114.667 304.333M203.667 304.333L204.333 304.667L203.667 304.333M118 305L119 306L118 305M200.667 305.333L201.333 305.667L200.667 305.333M121.667 306.333L122.333 306.667L121.667 306.333M196.667 306.333L197.333 306.667L196.667 306.333M125 307L125 308L128 308L125 307M192.667 307.333L193.333 307.667L192.667 307.333M130.667 308.333L131.333 308.667L130.667 308.333z"/>
<path style="fill:#04a1c7; stroke:none;" d="M132 308L133 309L132 308z"/>
<path style="fill:#cb99aa; stroke:none;" d="M187.667 308.333L188.333 308.667L187.667 308.333M136 309L136 310L139 310L136 309M181 309L181 310L184 310L181 309M143 310L143 311L148 311L143 310z"/>
<path style="fill:#04a1c7; stroke:none;" d="M171 310L172 311L171 310z"/>
<path style="fill:#cb99aa; stroke:none;" d="M172 310L172 311L176 311L172 310z"/>
</svg>
